<svg width="630" height="334" viewBox="0 0 630 334" fill="none" xmlns="http://www.w3.org/2000/svg">
<g clip-path="url(#clip0)">
<path d="M22.5391 334.524C22.5391 334.524 -48.1347 185.269 91.155 185.269C164.751 185.269 134.433 144.318 184.468 96.9254C234.504 49.5324 409.489 11.6684 446.733 103.185C483.976 194.702 391.934 264.186 480.875 252.266C587.757 237.943 629.978 334.524 629.978 334.524H22.5391Z" fill="#F2F2F5"/>
<path d="M591.193 286.11C587.057 282.505 582.564 278.986 577.702 275.667C583.005 270.797 588.348 267.556 593.182 267.556C593.724 267.556 594.261 267.597 594.792 267.681C602.582 268.918 599.201 276.8 591.193 286.11Z" fill="#D3D3D7"/>
<path d="M571.661 334.635H188.475C189.014 308.337 218.067 285.661 246.128 285.661C249.509 285.661 252.88 285.991 256.18 286.683C245.687 276.73 235.026 265.014 243 265.014C243.141 265.014 243.289 265.018 243.442 265.025C252.779 265.48 261.281 278.779 266.441 288.942C268.303 289.275 270.168 289.559 272.038 289.797C264.418 270.301 250.976 232.111 262.59 232.111C263.122 232.111 263.708 232.191 264.348 232.357C278.746 236.087 278.511 272.047 277.431 290.36C280.717 290.626 284.016 290.755 287.337 290.755C309.381 290.754 332.271 285.064 356.951 275.855C362.098 273.934 367.509 273.12 373.187 273.12C388.981 273.12 406.841 279.417 426.819 285.714C446.798 292.011 468.894 298.309 493.165 298.308C496.449 298.308 499.776 298.193 503.141 297.947C506.379 297.709 509.466 297.597 512.408 297.597C531.181 297.597 544.076 302.173 552.907 308.107C558.963 298.186 568.263 284.341 577.702 275.667C582.564 278.986 587.057 282.505 591.193 286.111C583.084 295.54 570.23 306.434 559.444 313.374C561.623 315.476 563.428 317.625 564.915 319.712C571.258 317.495 579.038 315.369 585.554 315.369C589.259 315.369 592.551 316.055 594.937 317.799C602.107 323.03 582.782 324.374 567.972 324.663C570.979 330.334 571.661 334.635 571.661 334.635Z" fill="#D3D3D7"/>
<path d="M171.067 311.862V334.64H272.061V311.862H171.067Z" fill="#526DBE"/>
<path d="M139.927 311.86V334.641H240.919V311.86H139.927Z" fill="#7698D6"/>
<path d="M311.79 334.635H386.991V229.642H311.79V334.635Z" fill="#048A63"/>
<path d="M288.604 334.635H363.804V229.642H288.604V334.635Z" fill="#05BC87"/>
<path d="M363.804 229.642L386.991 245.407V229.642H363.804Z" fill="#077555"/>
<path d="M131.665 252.899C131.665 252.899 117.602 263.345 114.86 262.711C112.117 262.078 125.138 251.436 125.138 251.436C120.238 249.082 105.008 250.557 105.008 250.557C105.008 250.557 99.9347 266.899 97.4332 265.61C94.9317 264.322 102.664 251.37 102.664 251.37C97.2074 251.041 90.5145 255.089 90.5145 255.089C81.3519 262.316 91.1164 273.696 91.1164 273.696C91.1164 273.696 89.2358 279.321 83.4499 284.443C83.4499 284.443 75.186 290.548 74.6121 301.456L76.1121 301.589C76.1121 301.589 78.49 291.43 82.8106 286.626C82.9788 286.452 83.223 286.202 83.5242 285.898C84.2279 285.247 84.7213 284.758 85.0527 284.395C87.2032 282.331 90.1753 279.701 91.6071 279.447C91.6071 279.447 91.535 279.184 91.5456 278.728C91.5651 278.958 91.5858 279.195 91.6071 279.447C92.0972 285.198 103.267 290.221 110.139 291.254C117.011 292.286 114.886 289.465 112.519 285.281C110.151 281.098 102.658 279.226 100.948 277.299C99.2389 275.372 102.774 275.368 106.914 277.257C111.054 279.146 111.621 284.182 118.263 287.36C124.905 290.537 134.899 279.528 134.899 279.528C129.605 279.259 122.047 273.517 122.32 271.76C122.593 270.003 135.151 274.791 137.298 275.021C139.445 275.251 144.329 272.583 145.085 263.946C145.841 255.309 131.665 252.899 131.665 252.899Z" fill="#08AE7F"/>
<path d="M56.9755 259.385C56.9755 259.385 72.5091 250.696 65.2601 238.904C65.2601 238.904 59.4613 231.664 53.2481 229.802C53.2481 229.802 56.5614 247.386 53.2481 247.8C49.9339 248.213 50.9698 227.94 50.9698 227.94C50.9698 227.94 34.608 220.078 28.1877 220.699C28.1877 220.699 38.3363 237.87 35.0224 237.456C31.7085 237.042 20.3178 219.665 20.3178 219.665C20.3178 219.665 3.54182 216.561 0.849457 226.492C-1.84291 236.422 2.50618 241.387 4.99159 242.007C7.47677 242.628 23.4242 242.421 23.0101 244.49C22.5957 246.558 11.8263 249.869 5.82008 248.007C5.82008 248.007 12.4476 264.35 21.1462 263.522C29.8446 262.695 32.5372 257.317 37.9219 256.903C43.3066 256.489 47.2416 257.937 44.5492 259.385C41.8569 260.833 32.7439 259.859 28.3951 263.553C24.0458 267.246 20.5249 269.522 28.6022 271.177C36.6793 272.832 51.177 271.797 54.0763 265.591C56.9755 259.385 56.9755 259.385 56.9755 259.385Z" fill="#06BD8A"/>
<path d="M61.1176 274.487C56.7685 266.418 56.9753 259.385 56.9753 259.385C52.0051 243.662 8.51245 229.595 8.51245 229.595C63.8102 251.937 54.0761 265.591 54.0761 265.591C55.566 266.46 57.8008 270.6 59.3516 273.777C59.5718 274.317 59.9222 275.066 60.4414 276.081C60.6521 276.54 60.8209 276.916 60.9365 277.178C63.7839 284.294 62.2756 296.583 62.2756 296.583L64.0013 297.045C67.8251 284.66 61.1176 274.487 61.1176 274.487Z" fill="#0A9470"/>
<path d="M81.6879 247.402C81.6879 247.402 61.2123 235.948 70.7678 220.405C70.7678 220.405 78.4119 210.86 86.602 208.406C86.602 208.406 82.2339 231.585 86.602 232.131C90.9701 232.676 89.6053 205.951 89.6053 205.951C89.6053 205.951 111.172 195.589 119.636 196.407C119.636 196.407 106.258 219.041 110.626 218.496C114.995 217.95 130.01 195.043 130.01 195.043C130.01 195.043 152.124 190.953 155.673 204.042C159.222 217.132 153.489 223.677 150.213 224.495C146.937 225.313 125.915 225.04 126.461 227.767C127.007 230.494 141.203 234.857 149.12 232.403C149.12 232.403 140.384 253.947 128.918 252.856C117.452 251.765 113.903 244.675 106.804 244.13C99.7062 243.584 94.5194 245.493 98.0682 247.402C101.618 249.311 113.63 248.027 119.363 252.896C125.096 257.764 129.737 260.765 119.09 262.946C108.443 265.127 89.332 263.764 85.51 255.583C81.6879 247.402 81.6879 247.402 81.6879 247.402Z" fill="#06BD8A"/>
<path d="M145.571 208.132C145.571 208.132 88.2399 226.676 81.6878 247.402C81.6878 247.402 81.961 256.673 76.2277 267.309C76.2277 267.309 67.3859 280.72 72.4268 297.045L74.7014 296.435C74.7014 296.435 72.713 280.237 76.4663 270.857C76.6194 270.511 76.8413 270.016 77.1185 269.411C77.8037 268.071 78.2647 267.086 78.5559 266.373C80.6002 262.185 83.5454 256.727 85.5098 255.583C85.5098 255.583 72.6783 237.584 145.571 208.132Z" fill="#0A9470"/>
<path d="M80.9981 332.448C103.149 332.448 121.106 314.51 121.106 292.384H40.8894C40.8894 314.51 58.8464 332.448 80.9981 332.448Z" fill="#365158"/>
<path opacity="0.2" d="M90.8671 332.141C89.2358 332.344 87.5726 332.448 85.8837 332.448C63.7338 332.448 45.7776 314.51 45.7776 292.383H55.7417C55.7417 312.825 71.0672 329.69 90.8671 332.141Z" fill="white"/>
<path d="M116.712 329.692H45.2838C42.5511 329.692 40.3354 331.906 40.3354 334.635H121.66C121.66 331.906 119.445 329.692 116.712 329.692Z" fill="#1A282B"/>
<path d="M121.403 292.382H40.1858C39.846 292.382 39.5708 292.658 39.5708 292.998C39.5708 293.337 39.846 293.612 40.1858 293.612H121.403C121.743 293.612 122.018 293.337 122.018 292.998C122.018 292.658 121.743 292.382 121.403 292.382Z" fill="#1A282B"/>
<path d="M430.901 81.4137C429.739 81.2373 426.235 84.4729 426.235 84.4729C418.755 85.3359 407.818 87.3199 403.882 88.0768C401.09 88.6139 393.585 86.0577 386.253 83.1231C377.533 79.6313 369.06 75.6036 369.06 75.6036C364.221 75.3574 358.727 84.1748 368.539 89.7812C370.037 90.6369 375.665 92.0973 382.146 93.4309L382.147 93.4304C391.087 95.2703 401.649 96.8674 405.245 96.3064C409.42 95.6538 421.241 91.3342 428.273 88.0266L428.291 88.0177L428.37 87.9808C428.791 87.7838 430.512 87.0184 431.661 87.086C432.979 87.1641 435.913 84.7559 436.002 84.1134C436.092 83.4703 432.064 81.5901 430.901 81.4137Z" fill="#EDBDAA"/>
<path d="M421.767 192.496L417.649 193.332C417.649 193.332 398.801 172.178 395.893 163.277C394.336 158.52 384.386 156.464 373.987 153.779C364.936 151.441 355.545 148.625 351.06 143.13C341.421 131.324 357.115 116.816 357.115 116.816C357.115 116.816 373.801 126.722 388.195 136.956C398.257 144.108 407.199 151.42 408.547 155.621C411.819 165.841 418.759 185.264 421.767 192.496Z" fill="#132529"/>
<path d="M416.255 199.474H418.572C419.348 199.352 419.921 199.127 420.717 199.024C421.926 198.866 422.482 199.36 422.593 199.474L422.615 199.498H432.456C432.703 199.145 432.466 198.326 432.233 197.724C432.076 197.315 431.734 197.005 431.311 196.883C430.268 196.581 428.21 196.312 426.326 194.608C425.266 193.652 421.207 191.09 421.207 191.09L421.186 191.085C421.097 191.087 420.672 191.217 418.826 192.775C417.872 193.577 416.245 191.639 416.245 191.639C416.245 191.639 415.94 191.892 415.712 192.362C415.529 192.733 415.395 193.242 415.5 193.87C415.648 194.756 415.173 196.403 414.795 197.516C414.566 198.191 414.373 198.669 414.373 198.669C414.373 198.669 414.262 199.225 416.255 199.474Z" fill="#334F55"/>
<path d="M388.195 136.956L373.987 153.779C364.936 151.441 355.545 148.625 351.06 143.13C341.421 131.324 357.115 116.816 357.115 116.816C357.115 116.816 373.801 126.722 388.195 136.956Z" fill="#132529"/>
<path d="M375.284 128.169C375.284 128.169 374.138 131.777 372.274 137.206C369.916 144.069 366.404 153.842 362.594 162.905C361.757 164.897 360.905 166.855 360.048 168.739C356.88 175.714 353.636 181.693 350.781 184.73C345.65 190.192 333.177 225.306 333.177 225.306L330.069 224.447C330.069 224.447 325.736 194.464 341.086 177.402C341.25 177.22 341.379 177.009 341.397 176.765L341.399 176.758C341.604 174.232 342.334 162.923 343.924 151.463C344.314 148.651 344.756 145.832 345.254 143.131C345.284 142.958 345.317 142.787 345.349 142.617C347.684 130.127 349.92 124.572 352.806 121.778L374.027 127.812L375.284 128.169Z" fill="#132529"/>
<path d="M329.723 229.619H332.039C332.815 229.497 333.388 229.272 334.184 229.169C335.393 229.01 335.95 229.505 336.06 229.619L336.082 229.642H345.923C346.171 229.289 345.934 228.471 345.701 227.869C345.543 227.459 345.202 227.15 344.779 227.027C343.735 226.726 341.677 226.457 339.793 224.753C338.734 223.796 334.675 221.235 334.675 221.235L334.653 221.23C334.564 221.231 334.14 221.362 332.294 222.919C331.339 223.722 329.713 221.784 329.713 221.784C329.713 221.784 329.408 222.037 329.18 222.507C328.996 222.877 328.863 223.387 328.968 224.016C329.115 224.902 328.641 226.548 328.264 227.661C328.033 228.336 327.84 228.814 327.84 228.814C327.84 228.814 327.729 229.37 329.723 229.619Z" fill="#334F55"/>
<path d="M334.274 87.3911C334.274 87.3911 330.724 96.0683 326.63 104.514C323.186 111.615 319.36 118.552 316.934 120.032C313.513 122.12 304.089 128.008 297.976 132.4C297.976 132.4 293.205 132.364 292.464 133.276C291.723 134.188 290.013 138.287 290.512 138.702C291.012 139.117 294.804 138.925 295.726 137.981C296.529 137.158 298.318 136.567 298.763 136.429L298.846 136.404L298.865 136.398C306.293 134.116 317.946 129.359 321.473 127.033C324.51 125.031 331.243 116.747 336.613 109.374L336.615 109.373C340.508 104.029 343.685 99.1643 344.215 97.5242C347.692 86.7803 337.686 83.9557 334.274 87.3911Z" fill="#EDBDAA"/>
<path d="M352.845 53.3651C352.423 52.7516 351.997 52.2096 351.572 51.7233C352.099 51.7345 352.668 51.6826 353.14 51.4883C354.387 50.9736 354.954 47.0208 354.767 45.849C354.58 44.6767 352.849 41.286 350.714 40.9482C348.579 40.61 346.373 42.9786 346.373 42.9786C346.767 41.2692 350.38 40.2834 350.38 40.2834C342.939 41.6533 343.319 46.611 343.37 47.0682C336.559 44.6449 332.561 57.4564 332.561 57.4564L350.203 67.8413C350.203 67.8413 350.249 65.0116 351.932 65.1942C354.557 65.4783 356.742 59.0396 352.845 53.3651Z" fill="#132529"/>
<path d="M353.969 80.2477C349.92 82.1536 344.549 79.4087 344.578 79.3797C344.925 79.033 344.803 77.9947 344.485 76.6376C344.167 75.2219 343.415 73.2865 342.027 70.976C341.738 70.4853 341.449 69.9941 341.102 69.4743L341.564 69.3013L349.429 66.1528C349.429 66.1528 350.702 68.4344 352.031 70.5138C353.158 72.2471 354.344 73.8068 354.865 73.7493C354.894 73.7203 360.098 77.3019 353.969 80.2477Z" fill="#EDBDAA"/>
<path d="M349.429 66.9325C349.226 69.7337 348.272 74.7886 344.485 76.6375C344.167 75.2218 343.415 73.2864 342.027 70.9758L349.429 66.9325Z" fill="#E4AD97"/>
<path d="M341.567 74.1648C341.567 74.1648 351.806 70.1337 349.195 63.8028C346.583 57.4724 346.146 52.6883 339.498 54.9943C332.85 57.3004 332.584 60.2356 332.942 62.5607C333.298 64.8852 338.836 75.0501 341.567 74.1648Z" fill="#EDBDAA"/>
<path d="M345.386 62.359C350.113 61.6924 351.494 59.7833 351.494 59.7833C351.494 59.7833 347.139 58.5356 344.58 54.2763C344.58 54.2763 339.267 52.486 335.329 55.4787C335.09 55.7896 334.918 56.1564 334.831 56.5879C333.929 56.2926 332.571 56.3691 331.788 58.9169C330.612 62.7447 334.797 66.9248 334.797 66.9248C335.811 66.6384 334.667 63.227 334.507 61.4061C334.39 60.0663 335.113 58.3514 335.504 57.538C336.005 58.1873 340.993 64.4485 347.081 64.698C347.081 64.698 343.865 63.5837 340.937 61.4022C342.392 62.1167 343.941 62.5627 345.386 62.359Z" fill="#132529"/>
<path d="M373.463 93.2908C373.377 92.9854 373.284 92.6683 373.185 92.3434C374.706 89.44 375.453 86.8236 375.77 84.6085C376.464 79.9294 375.278 77.041 375.278 77.041C375.278 77.041 368.176 73.2791 365.041 72.8001L365.002 72.7884L364.876 72.7767C361.71 72.3407 354.856 73.738 354.856 73.738C354.856 73.738 356.179 77.2537 352.448 79.5972C348.718 81.9407 344.735 78.9971 344.735 78.9971C344.615 79.0781 344.487 79.1668 344.355 79.26L344.355 79.2595C344.355 79.2595 334.541 85.7272 333.66 87.2054C332.779 88.6836 329.005 96.0021 329.005 96.0021C329.005 96.0021 330.202 102.146 343.46 102.66C344.549 105.3 345.383 107.875 345.655 110.023C346.708 118.363 345.485 124.942 346.713 129.811C347.94 134.678 370.061 131.902 374.066 130.966C378.072 130.029 377.171 125.757 377.479 121.606C377.866 116.39 374.768 97.8918 373.463 93.2908Z" fill="#334F55"/>
<path d="M375.77 84.6087C375.452 86.8327 374.7 89.4609 373.168 92.3777C372.821 90.8476 371.404 85.2445 369.12 82.7018C369.12 82.7018 372.966 83.049 375.77 84.6087Z" fill="#21373C"/>
<path d="M285.704 139.267C285.704 139.267 289.825 134.279 290.712 133.689C291.599 133.099 295.492 132.066 295.715 132.274C295.937 132.483 295.947 132.783 295.465 133.209C294.983 133.634 293.142 134.708 293.404 134.828C293.667 134.949 299.221 132.187 300.022 133.116C300.822 134.046 299.568 137.88 297.428 139.718C295.288 141.556 288.9 142.34 288.498 142.597C285.091 144.773 285.704 139.267 285.704 139.267Z" fill="#F1AD92"/>
<path d="M213.149 127.749C213.149 127.749 219.069 134.765 226.609 131.83C226.609 131.83 228.23 127.911 228.253 125.023C228.255 124.667 228.261 124.323 228.266 123.995C228.306 120.742 228.416 118.917 228.416 118.917L228.408 118.916C228.065 118.773 216.883 114.187 216.892 114.568C217.084 123.365 213.149 127.749 213.149 127.749Z" fill="#F1AD92"/>
<path d="M218.015 116.666C219.093 118.662 222.793 122.568 228.266 123.995C228.307 120.742 228.416 118.917 228.416 118.917L228.408 118.916C228.099 118.833 217.694 116.077 218.015 116.666Z" fill="#E2A188"/>
<path d="M230.758 118.579C230.758 118.579 218.182 121.533 216.461 113.682C214.741 105.831 211.959 100.924 219.916 98.7069C227.872 96.489 230.094 99.1429 231.306 101.624C232.519 104.105 233.985 117.609 230.758 118.579Z" fill="#F1AD92"/>
<path d="M216.892 115.821C216.72 115.931 214.014 116.761 208.889 106.564C208.085 104.963 207.537 101.5 209.412 98.4402C211.287 95.3805 217.936 92.975 223.46 91.9278C228.985 90.8811 230.311 93.9854 231.612 97.1065C232.977 100.382 236.922 103.079 236.922 103.079C232.158 105.737 226.42 101.935 224.432 102.561C222.444 103.186 221.742 106.315 221.593 107.318C221.444 108.321 221.215 109.154 218.716 108.258C216.216 107.363 217.586 111.797 217.986 112.645C217.986 112.645 218.326 114.903 216.892 115.821Z" fill="#132529"/>
<path d="M184.496 311.861H176.882C175.286 311.861 173.511 310.243 173.067 307.281C172.623 304.316 169.342 302.701 168.632 300.276C167.921 297.852 171.56 294.438 171.56 294.438L172.168 293.647L172.801 292.822L178.833 294.258C178.833 294.258 178.981 295.712 179.075 297.564C179.139 298.9 179.175 300.447 179.099 301.802C178.922 305.036 179.994 308.517 182.831 309.146C185.671 309.775 184.496 311.861 184.496 311.861Z" fill="#334F55"/>
<path d="M237.507 311.935H217.322C217.129 311.896 216.982 311.853 216.893 311.807C215.546 311.113 215.968 305.806 216.13 304.167C216.161 303.864 216.183 303.686 216.183 303.686C216.183 303.686 223.281 297.847 224.258 302.318C224.289 302.457 224.324 302.594 224.362 302.729V302.731C225.594 306.913 231.103 308.813 234.284 309.343C236.715 309.75 237.345 311.206 237.507 311.935Z" fill="#334F55"/>
<path d="M233.438 195.341C233.438 195.341 232.361 208.775 231.093 224.922C229.372 246.858 227.301 273.803 227.096 278.908C226.742 287.771 225.321 301.949 225.321 301.949C225.321 301.949 221.952 305.318 215.207 303.898C215.207 303.898 209.197 283.658 207.48 262.244C207.454 261.893 207.427 261.539 207.4 261.185C205.804 239.386 203.321 193.479 203.321 193.479L233.438 195.341Z" fill="#334F55"/>
<path d="M233.438 195.341C233.438 195.341 232.361 208.775 231.093 224.922L207.48 262.244C207.454 261.893 207.427 261.539 207.4 261.185C205.804 239.386 203.321 193.479 203.321 193.479L233.438 195.341Z" fill="#2C4348"/>
<path d="M228.516 196.936C228.516 196.936 209.087 245.587 196.311 268.451C183.536 291.315 179.544 297.696 179.544 297.696C179.544 297.696 172.225 294.771 171.559 292.777C171.559 292.777 176.445 248.638 185 237.877C189.834 231.798 195.513 213.552 195.779 207.171C196.046 200.791 197.509 188.163 197.509 188.163L228.516 196.936Z" fill="#334F55"/>
<path d="M184.031 188.833C184.031 188.833 183.528 194.91 183.159 195.842C182.79 196.775 180.334 199.667 180.05 199.626C179.765 199.584 179.595 199.356 179.739 198.768C179.883 198.179 180.73 196.36 180.462 196.407C180.193 196.454 177.382 201.577 176.262 201.289C175.142 201 174.048 197.358 174.714 194.785C175.38 192.213 179.902 188.172 180.075 187.758C181.54 184.243 184.031 188.833 184.031 188.833Z" fill="#F1AD92"/>
<path d="M181.946 190.374C184.097 191.064 184.441 190.908 184.441 190.908C184.441 190.908 194.908 171.872 195.968 170.13C197.029 168.388 218.192 148.784 218.192 148.784L212.753 128.526C212.753 128.526 188.683 159.661 186.083 164.129C181.788 171.512 179.271 188.659 179.271 188.659C179.271 188.659 180.257 189.832 181.946 190.374Z" fill="#274494"/>
<path d="M237.54 156.737C237.464 160.898 237.223 165.575 236.897 170.325C236.877 170.607 236.856 170.889 236.836 171.169C236.628 174.112 236.402 177.062 236.142 179.938C236.037 181.092 235.926 182.231 235.811 183.351L235.793 183.502C235.784 183.921 235.733 184.376 235.687 184.79C234.625 195.563 233.513 204.075 233.307 204.205C233.06 204.369 232.782 204.452 232.478 204.416C229.65 204.061 221.212 204.702 214.303 203.201C208.473 201.972 203.453 199.643 198.134 196.503C197.428 196.086 195.819 194.983 195.949 194.157C196.079 193.251 196.315 191.939 196.618 190.292C197.666 184.562 199.475 174.705 200.092 163.169C200.212 161.02 200.387 158.898 200.614 156.811C201.207 151.375 202.157 146.213 203.431 141.627C205.8 133.107 209.281 126.583 213.648 124.031C214.219 123.711 217.288 125.662 220.108 127.47C222.712 129.138 225.455 129.599 228.12 129.366L230.467 131.958C233.309 135.258 236.334 139.651 237.16 145.896C237.223 146.357 237.276 146.848 237.32 147.368C237.549 149.912 237.605 153.132 237.54 156.737Z" fill="#3953AD"/>
<path d="M237.541 156.738C237.465 160.898 237.223 165.575 236.897 170.325C236.877 170.607 236.856 170.889 236.836 171.17C220.681 161.069 218.192 142.585 218.192 142.585C226.14 142.933 232.454 144.758 237.32 147.369C237.549 149.912 237.605 153.132 237.541 156.738Z" fill="#274494"/>
<path d="M288.156 139.767C287.323 137.516 286.027 137.663 286.027 137.663C286.027 137.663 262.007 143.642 259.851 143.899C257.696 144.155 233.985 134.65 233.985 134.65C233.985 134.65 224.652 130.467 220.281 134.287C216.481 137.607 216.309 141.812 217.198 145.343C218.257 149.552 221.822 152.661 226.131 153.209C235.805 154.44 255.105 156.756 259.151 156.194C268.154 154.942 288.553 143.179 288.553 143.179C288.553 143.179 288.809 141.534 288.156 139.767Z" fill="#3953AD"/>
<path d="M525.013 183.745C525.013 183.745 528.35 186.834 527.699 189.03C527.047 191.225 524.036 192.688 523.629 195.371C523.222 198.055 521.594 199.518 520.129 199.518C518.664 199.518 513.144 199.518 513.144 199.518C513.144 199.518 512.066 197.63 514.67 197.06C517.275 196.492 518.257 193.339 518.094 190.411C517.931 187.485 518.339 183.582 518.339 183.582L523.873 182.281L525.013 183.745Z" fill="#334F55"/>
<path d="M483.42 199.152C483.082 199.322 481.891 199.439 480.259 199.518H464.463C464.516 199.048 464.884 197.375 467.467 196.959C470.385 196.485 475.441 194.791 476.567 191.063C476.605 190.944 476.637 190.821 476.664 190.698C477.56 186.714 484.07 191.916 484.07 191.916C484.07 191.916 484.09 192.076 484.117 192.347C484.27 193.812 484.655 198.537 483.42 199.152Z" fill="#2B3662"/>
<path d="M468.241 92.5947C468.241 92.5947 469.23 104.92 470.392 119.735C471.972 139.861 473.872 164.582 474.06 169.264C474.384 177.396 475.688 190.404 475.688 190.404C475.688 190.404 478.78 193.495 484.968 192.192C484.968 192.192 490.481 173.623 492.057 153.976C492.081 153.654 492.105 153.329 492.129 153.005C493.595 133.004 495.873 90.8876 495.873 90.8876L468.241 92.5947Z" fill="#334F55"/>
<path d="M468.241 92.5946C468.241 92.5946 469.23 104.92 470.392 119.735L492.057 153.976C492.081 153.653 492.105 153.329 492.129 153.005C493.595 133.004 495.873 90.8875 495.873 90.8875L468.241 92.5946Z" fill="#2C4348"/>
<path d="M472.757 94.0588C472.757 94.0588 490.583 138.695 502.303 159.671C514.024 180.648 517.688 186.502 517.688 186.502C517.688 186.502 524.402 183.819 525.013 181.989C525.013 181.989 520.531 141.493 512.681 131.621C508.246 126.043 503.036 109.303 502.792 103.449C502.548 97.5952 501.205 86.009 501.205 86.009L472.757 94.0588Z" fill="#334F55"/>
<path d="M417.775 69.8495C417.775 69.8495 412.94 68.7453 412.126 68.8012C411.312 68.857 408.466 70.046 408.428 70.2771C408.39 70.5071 408.525 70.6947 409.017 70.7282C409.508 70.7611 411.128 70.5529 411.025 70.7489C410.922 70.9448 406.259 71.8603 406.208 72.7982C406.156 73.7354 408.712 75.4777 410.87 75.5949C413.028 75.7116 417.273 73.2062 417.637 73.1744C420.723 72.9053 417.775 69.8495 417.775 69.8495Z" fill="#F1AD92"/>
<path d="M415.705 71.0764C415.012 68.8702 415.174 68.5185 415.174 68.5185C415.174 68.5185 434.774 57.9327 436.569 56.8592C438.363 55.7857 458.618 34.2551 458.618 34.2551L479.364 39.9591C479.364 39.9591 447.259 64.3881 442.659 67.0185C435.055 71.3655 417.448 73.8257 417.448 73.8257C417.448 73.8257 416.25 72.8086 415.705 71.0764Z" fill="#33AB71"/>
<path d="M464.905 23.7884C464.905 23.7884 457.631 36.5709 450.522 38.2395C450.522 38.2395 450.818 33.9461 452.549 31.0087C451.84 30.173 451.218 29.4065 450.679 28.7199C448.889 26.4295 448.038 25.0272 448.038 25.0272L450.451 18.5477L452.088 14.1521C452.875 15.5784 453.743 16.7943 454.646 17.8337C459.306 23.1844 464.905 23.7884 464.905 23.7884Z" fill="#F1AD92"/>
<path d="M454.646 17.8333C454.646 17.8333 455.514 24.2391 450.679 28.7195C448.889 26.429 448.038 25.0267 448.038 25.0267L450.451 18.5473C453.038 17.7602 454.646 17.8333 454.646 17.8333Z" fill="#E2A188"/>
<path d="M446.122 25.9714C446.122 25.9714 456.989 21.7395 454.246 15.0205C451.504 8.30102 451.06 3.22998 444.006 5.64715C436.951 8.06543 436.658 11.1748 437.028 13.6394C437.397 16.1052 443.225 26.8992 446.122 25.9714Z" fill="#F1AD92"/>
<path d="M502.259 89.3832C497.874 95.6784 465.099 104.091 465.487 99.7329C465.637 98.0649 465.837 95.1247 465.483 91.1377C465.401 90.2038 465.286 89.2146 465.135 88.1679C464.302 82.4426 462.324 75.0801 457.913 66.5575C457.582 65.9188 457.238 65.2757 456.88 64.6243C455.065 61.324 453.517 57.8356 452.336 54.4253C450.065 47.8699 449.15 41.5987 450.296 37.4984L450.314 37.4409C457.165 34.2763 459.82 22.004 459.82 22.004C459.82 22.004 483.194 26.1952 496.287 57.3169C496.287 57.3169 506.073 83.9036 502.259 89.3832Z" fill="#06BD8A"/>
<path d="M465.483 91.1377C465.401 90.2038 465.285 89.2146 465.135 88.1679C464.302 82.4426 462.324 75.08 457.913 66.5574C458.67 61.9715 459.715 58.1576 460.863 56.441C465.526 49.4619 468.24 48.3712 468.24 48.3712C468.24 48.3712 475.231 77.821 465.483 91.1377Z" fill="#33AB71"/>
<path d="M428.638 84.1308C428.638 84.1308 422.172 84.4697 421.17 84.8308C420.167 85.1915 417.019 87.7007 417.053 88.0033C417.089 88.3059 417.325 88.4934 417.955 88.36C418.584 88.226 420.543 87.387 420.483 87.6695C420.425 87.9525 414.897 90.7666 415.168 91.9618C415.439 93.1575 419.27 94.4336 422.023 93.8095C424.775 93.186 429.208 88.5252 429.653 88.355C433.431 86.9158 428.638 84.1308 428.638 84.1308Z" fill="#F1AD92"/>
<path d="M427.419 86.5802C426.123 84.4896 427.057 83.5361 427.057 83.5361C427.057 83.5361 447.031 67.9144 448.597 66.3357C450.164 64.7582 457.415 39.628 457.415 39.628C457.415 39.628 459.912 29.4581 465.758 28.3366C470.837 27.3619 474.348 29.8723 476.645 32.8153C479.383 36.3221 479.651 41.1593 477.379 44.9837C472.279 53.5678 461.991 70.6068 458.987 73.5186C452.3 79.9975 429.928 89.0515 429.928 89.0515C429.928 89.0515 428.436 88.222 427.419 86.5802Z" fill="#06BD8A"/>
<path d="M455.806 2.53885C455.883 2.38868 456.103 2.22791 456.643 2.06323C456.643 2.06323 456.138 1.89297 455.549 2.02248C455.244 1.27891 454.503 0.0122852 453.111 0.00279427C453.111 0.00279427 453.909 0.209887 454.204 1.00817C452.297 -0.199301 448.764 -0.54932 439.943 2.38533C428.319 6.2528 434.127 12.9935 435.889 13.5339C437.651 14.0743 440.894 10.6059 443.811 10.1326C446.728 9.65918 448.306 13.7181 449.419 14.0547C450.531 14.3913 449.898 13.468 451.063 12.543C452.228 11.6175 452.896 13.794 452.871 15.3225C452.846 16.8509 455.117 18.2996 455.117 18.2996C455.117 18.2996 455.117 18.2996 456.449 15.859C457.78 13.4189 457.418 4.56025 456.145 2.96592C456.033 2.82525 455.921 2.68176 455.806 2.53885Z" fill="#132529"/>
<path d="M272.06 311.604V324.746L240.919 311.604H272.06Z" fill="#496BBD"/>
<path d="M435.577 199.517V334.635H538.564V199.517H435.577Z" fill="#3953AD"/>
<path d="M403.822 199.518V334.635H506.81V199.518H403.822Z" fill="#274494"/>
<path d="M538.564 199.518V219.722L506.811 199.518H538.564Z" fill="#567CC7"/>
</g>
<defs>
<clipPath id="clip0">
<rect width="630" height="334" fill="white"/>
</clipPath>
</defs>
</svg>
