<svg width="196" height="152" viewBox="0 0 196 152" fill="none" xmlns="http://www.w3.org/2000/svg">
<rect width="196" height="152" fill="#E5E5E5"/>
<g clip-path="url(#clip0)">
<rect width="1440" height="8023" transform="translate(-1076 -5135)" fill="white"/>
<rect x="-996" y="-68" width="1280" height="292" rx="20" fill="url(#paint0_linear)"/>
<path opacity="0.6" fill-rule="evenodd" clip-rule="evenodd" d="M0.00561523 151.222H195.997V0.358612H0.00561523V151.222Z" fill="#F5F5F7"/>
<path fill-rule="evenodd" clip-rule="evenodd" d="M21.2317 131.361H174.769V15.8613H21.2317V131.361Z" fill="#C4DBEA"/>
<path fill-rule="evenodd" clip-rule="evenodd" d="M0.00198505 0.00668198C0.0659373 -0.0812524 1.32902 0.704162 3.31753 2.04116C5.30805 3.38416 8.02602 5.27874 10.9718 7.45712C13.9176 9.63149 16.5217 11.688 18.3663 13.2288C20.2049 14.7677 21.2961 15.7789 21.2302 15.8608C21.1622 15.9468 19.9511 15.0874 18.0245 13.6625L10.5102 8.08265L2.99776 2.49083C1.09119 1.03591 -0.0599545 0.0926178 0.00399771 0.00668198H0.00198505ZM195.996 0.35842C196.124 0.530292 191.473 4.14359 185.613 8.4224C179.75 12.7052 174.893 16.0367 174.767 15.8608C174.64 15.689 179.29 12.0757 185.152 7.79487C191.015 3.51207 195.87 0.182552 195.996 0.35842Z" fill="white"/>
<path fill-rule="evenodd" clip-rule="evenodd" d="M174.768 15.8612C174.768 15.8612 174.511 15.8752 174.025 15.8812L171.865 15.9012L163.503 15.9451L132.01 16.0371L21.233 16.2129L21.5848 15.8612C21.5968 50.5053 21.6047 89.828 21.6207 131.349V131.363L21.233 130.973L174.768 131.041L174.449 131.361L174.616 47.4956C174.65 37.4231 174.68 29.535 174.696 24.139L174.734 17.9896C174.746 16.5966 174.768 15.8612 174.768 15.8612C174.768 15.8612 174.792 16.5527 174.806 17.9237L174.84 24.0111L174.924 47.2937L175.09 131.363V131.683H174.77L21.233 131.753H20.8413V131.349L20.8793 15.8612V15.5095H21.233L132.24 15.6853C145.714 15.7253 156.356 15.7553 163.651 15.7793L171.944 15.8192C172.864 15.8312 173.571 15.8372 174.063 15.8392C174.539 15.8472 174.768 15.8612 174.768 15.8612Z" fill="white"/>
<path fill-rule="evenodd" clip-rule="evenodd" d="M173.989 131.363C174.133 131.203 179.177 135.52 185.255 141C191.332 146.485 196.141 151.06 195.997 151.222C195.853 151.38 190.809 147.065 184.731 141.579C178.656 136.095 173.845 131.521 173.989 131.363ZM0.00320548 151.222C-0.138689 151.062 4.4479 146.685 10.2476 141.449C16.0512 136.213 20.8716 132.096 21.0155 132.256C21.1594 132.416 16.5728 136.791 10.7692 142.029C4.96752 147.265 0.149111 151.38 0.00521814 151.222H0.00320548ZM133.547 37.1551C133.547 37.379 118.357 37.5588 99.6228 37.5588C80.8868 37.5588 65.7001 37.379 65.7001 37.1551C65.7001 36.9333 80.8868 36.7514 99.6228 36.7514C118.357 36.7514 133.547 36.9313 133.547 37.1551ZM148.828 75.3486C148.828 75.5704 126.071 75.7523 98.004 75.7523C69.927 75.7523 47.172 75.5724 47.172 75.3486C47.172 75.1268 69.927 74.9449 98.004 74.9449C126.071 74.9449 148.828 75.1248 148.828 75.3486ZM148.828 84.7796C148.828 85.0034 126.071 85.1853 98.004 85.1853C69.927 85.1853 47.172 85.0054 47.172 84.7796C47.172 84.5597 69.927 84.3799 98.004 84.3799C126.071 84.3799 148.828 84.5597 148.828 84.7796ZM42.1398 56.1569C42.1398 52.5836 44.8737 50.0495 48.5989 50.0495C50.7613 50.0495 52.506 50.8389 53.6472 52.2658L51.5327 54.1764C50.7953 53.2891 49.89 52.8015 48.7668 52.8015C46.8363 52.8015 45.4952 54.1444 45.4952 56.1589C45.4952 58.1714 46.8363 59.5124 48.7668 59.5124C49.89 59.5124 50.7953 59.0268 51.5327 58.1355L53.6472 60.05C52.508 61.477 50.7613 62.2644 48.5989 62.2644C44.8737 62.2644 42.1398 59.7283 42.1398 56.1569ZM64.555 59.4625V62.0286H55.126V50.2833H64.3372V52.8514H58.4156V54.8299H63.6317V57.3161H58.4156V59.4625H64.555ZM71.5698 52.9034H69.7231V56.3408H71.5698C72.9448 56.3408 73.6322 55.7013 73.6322 54.6301C73.6322 53.5409 72.9448 52.9034 71.5698 52.9034ZM71.5338 58.9089H69.7231V62.0286H66.4036V50.2833H71.7696C74.9732 50.2833 76.9897 51.9461 76.9897 54.6301C76.9897 56.3588 76.1484 57.6338 74.6914 58.3373L77.2235 62.0286H73.6662L71.5338 58.9089ZM81.1506 52.9194H77.5433V50.2833H88.0615V52.9194H84.4721V62.0286H81.1506V52.9194ZM89.3065 62.0286H92.6261V50.2833H89.3065V62.0286ZM98.3178 52.8514V55.4355H103.5V58.0016H98.3178V62.0286H94.9923V50.2833H104.205V52.8514H98.3178ZM105.764 62.0286H109.088V50.2833H105.764V62.0286ZM110.85 56.1569C110.85 52.5836 113.586 50.0495 117.31 50.0495C119.474 50.0495 121.219 50.8389 122.36 52.2658L120.245 54.1764C119.506 53.2891 118.603 52.8015 117.477 52.8015C115.549 52.8015 114.206 54.1444 114.206 56.1589C114.206 58.1714 115.549 59.5124 117.477 59.5124C118.603 59.5124 119.506 59.0268 120.245 58.1355L122.36 60.05C121.221 61.477 119.474 62.2644 117.31 62.2644C113.586 62.2644 110.85 59.7283 110.85 56.1569ZM130.532 57.2981L129.021 53.5409L127.51 57.2981H130.532ZM131.505 59.7463H126.537L125.615 62.0286H122.226L127.412 50.2833H130.682L135.882 62.0286H132.426L131.505 59.7463ZM138.74 52.9194H135.13V50.2833H145.648V52.9194H142.059V62.0286H138.74V52.9194ZM156.32 59.4625V62.0286H146.892V50.2833H156.103V52.8514H150.181V54.8299H155.399V57.3161H150.181V59.4625H156.32ZM111.332 108.238C111.332 114.773 106.036 120.067 99.5049 120.067C92.9718 120.067 87.6777 114.771 87.6777 108.238C87.6777 101.707 92.9718 96.4129 99.5049 96.4129C106.036 96.4129 111.332 101.709 111.332 108.238Z" fill="white"/>
<path fill-rule="evenodd" clip-rule="evenodd" d="M73.492 107.507C73.4753 107.508 73.4003 107.233 73.3504 106.692C73.3054 106.153 73.2888 105.343 73.4853 104.321C73.6968 103.308 74.0715 102.072 74.9842 100.857C75.2306 100.565 75.5587 100.277 75.9984 100.167C76.4364 100.045 76.9377 100.167 77.3041 100.445C78.0635 100.97 78.4166 102.069 78.1302 103.017C77.8803 103.979 77.2741 104.785 76.6779 105.585C76.065 106.386 75.3672 107.192 74.4979 107.885C73.6319 108.571 72.5876 109.157 71.3719 109.325C70.1794 109.485 68.8637 109.284 67.7862 108.522C66.667 107.795 66.1058 106.336 66.214 105.013C66.3056 103.664 66.732 102.425 67.2749 101.176C67.5697 100.56 67.9677 99.9405 68.5706 99.4859C69.1718 99.0445 69.9463 98.7964 70.739 98.9446C71.5467 99.0828 72.2046 99.7923 72.3678 100.562C72.5493 101.331 72.4344 102.086 72.2379 102.788C71.7799 104.187 71.1137 105.403 70.291 106.549C69.4583 107.67 68.4091 108.647 67.1517 109.239C65.8993 109.826 64.4887 110.02 63.1713 109.743C61.844 109.492 60.6665 108.629 60.022 107.52C59.3575 106.419 59.116 105.148 59.186 103.959C59.2543 102.763 59.6023 101.653 60.052 100.652C60.495 99.7024 61.0429 98.5699 62.242 98.2585C62.8516 98.1252 63.4778 98.4766 63.7492 98.9579C64.0323 99.4309 64.1156 99.9405 64.1456 100.417C64.1856 102.305 63.6826 103.976 62.9698 105.268C62.282 106.581 61.3926 107.525 60.6116 108.199C59.8205 108.869 59.1094 109.255 58.6214 109.49C58.1218 109.705 57.8503 109.79 57.8436 109.77C57.802 109.698 58.9311 109.358 60.44 108.005C61.1728 107.317 62.0055 106.377 62.6384 105.095C63.2946 103.836 63.7376 102.217 63.6709 100.443C63.641 100.015 63.5477 99.5725 63.3295 99.2227C63.118 98.878 62.7283 98.6848 62.3403 98.7681C61.9506 98.8463 61.5808 99.1711 61.2911 99.5508C60.9946 99.9272 60.7814 100.395 60.5633 100.88C59.7122 102.757 59.3292 105.203 60.55 107.197C61.1329 108.173 62.1321 108.894 63.3029 109.115C64.4654 109.353 65.7461 109.177 66.8719 108.642C69.1419 107.55 70.7157 105.112 71.5917 102.602C71.7716 101.972 71.8582 101.303 71.7183 100.725C71.585 100.152 71.157 99.7024 70.6074 99.5991C70.0578 99.4909 69.4333 99.6724 68.9653 100.019C68.494 100.374 68.1376 100.898 67.8695 101.461C67.3599 102.612 66.9335 103.859 66.8536 105.045C66.7686 106.234 67.2133 107.393 68.1476 108.019C69.0519 108.674 70.231 108.876 71.2936 108.741C72.3595 108.607 73.3404 108.081 74.1548 107.448C74.9758 106.805 75.6603 106.041 76.2699 105.267C76.8694 104.489 77.4457 103.721 77.6705 102.897C77.927 102.081 77.6455 101.24 77.0493 100.79C76.4614 100.297 75.692 100.567 75.2706 101.103C74.4046 102.194 73.9766 103.411 73.7418 104.377C73.3021 106.359 73.5736 107.508 73.492 107.508V107.507ZM141.641 105.931C141.644 105.939 141.558 105.988 141.383 106.071C141.205 106.154 140.948 106.282 140.595 106.424C139.896 106.722 138.843 107.114 137.449 107.508C136.05 107.893 134.308 108.274 132.246 108.464C131.214 108.559 130.106 108.609 128.927 108.589C127.756 108.611 126.486 108.354 125.263 108.494C124.659 108.574 124.071 108.841 123.671 109.309C123.258 109.767 123.19 110.416 123.475 111.007C123.741 111.603 124.229 112.155 124.685 112.733C125.148 113.304 125.633 113.877 126.144 114.448C126.652 115.018 127.185 115.584 127.741 116.147C128.294 116.703 128.857 117.289 129.543 117.534C130.221 117.801 130.966 117.497 131.41 116.875C131.882 116.27 131.997 115.454 131.972 114.618C131.262 107.723 131.817 99.8056 134.445 92.0514L134.733 91.2054L135.071 92.0298C135.807 93.8201 136.273 95.8436 136.403 97.917C136.543 100.752 136.09 103.579 135.056 106.123C134.54 107.393 133.895 108.596 133.134 109.703C132.391 110.777 131.465 111.945 130.036 112.318C129.324 112.526 128.428 112.235 128.005 111.593C127.572 110.961 127.512 110.254 127.468 109.625C127.393 108.359 127.433 107.102 127.587 105.883C127.881 103.445 128.614 101.15 129.64 99.1178L129.857 98.6915L130.136 99.0712C131.762 101.26 131.031 104.514 128.874 105.731C126.752 106.94 123.974 106.246 122.798 104.404C121.631 102.575 121.954 100.217 123.198 98.8563C123.495 98.5066 123.879 98.2118 124.331 98.0703C124.785 97.9154 125.36 98.0453 125.658 98.4367C125.961 98.823 125.993 99.2844 125.974 99.6824C125.958 100.087 125.858 100.475 125.73 100.822C124.75 103.616 123.201 105.431 122.084 106.514C121.518 107.059 121.036 107.422 120.71 107.663C120.377 107.893 120.199 108.003 120.19 107.991C120.18 107.978 120.34 107.841 120.653 107.588C120.956 107.327 121.414 106.942 121.954 106.384C123.02 105.277 124.496 103.453 125.4 100.71C125.616 100.074 125.766 99.2277 125.362 98.6798C124.912 98.1186 124.003 98.4983 123.508 99.1328C122.409 100.357 122.142 102.537 123.203 104.136C124.227 105.743 126.757 106.347 128.599 105.263C130.461 104.227 131.089 101.286 129.67 99.4292L130.166 99.3826C129.182 101.359 128.483 103.591 128.204 105.961C128.061 107.142 128.028 108.359 128.104 109.585C128.141 110.188 128.226 110.792 128.528 111.22C128.831 111.642 129.35 111.828 129.89 111.683C130.429 111.55 130.951 111.202 131.399 110.794C131.853 110.389 132.2 109.845 132.594 109.329C133.321 108.261 133.94 107.1 134.436 105.873C135.432 103.421 135.865 100.69 135.73 97.9553C135.606 95.9568 135.158 94.0083 134.453 92.2879L135.079 92.2646C132.478 99.9389 131.9 107.686 132.573 114.605C132.596 115.484 132.468 116.477 131.88 117.228C131.597 117.599 131.22 117.915 130.764 118.084C130.306 118.255 129.788 118.23 129.354 118.072C128.478 117.744 127.901 117.089 127.347 116.535C126.787 115.96 126.253 115.382 125.743 114.803C125.232 114.22 124.745 113.639 124.282 113.054C123.833 112.468 123.335 111.918 123.018 111.205C122.67 110.514 122.768 109.553 123.31 108.999C123.809 108.424 124.526 108.126 125.202 108.046C125.884 107.955 126.534 108.019 127.15 108.074C127.763 108.124 128.359 108.164 128.939 108.181C130.101 108.218 131.194 108.186 132.215 108.108C134.257 107.956 135.99 107.613 137.386 107.27C138.778 106.917 139.839 106.562 140.55 106.304C141.261 106.049 141.629 105.908 141.641 105.931Z" fill="white"/>
<path fill-rule="evenodd" clip-rule="evenodd" d="M77.9597 109.419C77.9597 109.605 72.6436 109.757 66.0869 109.757C59.5268 109.757 54.2124 109.607 54.2124 109.419C54.2124 109.235 59.5268 109.085 66.0869 109.085C72.6436 109.085 77.9597 109.235 77.9597 109.419ZM143.083 109.419C143.083 109.605 137.137 109.757 129.801 109.757C122.461 109.757 116.514 109.607 116.514 109.419C116.514 109.235 122.461 109.085 129.801 109.085C137.137 109.085 143.084 109.235 143.084 109.419" fill="white"/>
</g>
<defs>
<linearGradient id="paint0_linear" x1="284" y1="78" x2="-996" y2="77.9999" gradientUnits="userSpaceOnUse">
<stop stop-color="#0052CC"/>
<stop offset="1" stop-color="#05BC87"/>
</linearGradient>
<clipPath id="clip0">
<rect width="1440" height="8023" fill="white" transform="translate(-1076 -5135)"/>
</clipPath>
</defs>
</svg>
