<svg width="96" height="25" viewBox="0 0 96 25" fill="none" xmlns="http://www.w3.org/2000/svg">
<g clip-path="url(#clip0)">
<path d="M49.5411 9.67301C46.7071 9.04845 45.1086 8.88445 45.1086 7.73407C45.1086 7.04345 45.7751 6.61629 46.9743 6.61629C48.4747 6.61629 49.8645 6.73494 51.5325 7.95126L53.5113 3.03685C53.7928 2.24404 52.3802 1.63902 52.3802 1.63902C50.437 0.734503 48.4475 0.182901 46.4418 0.174452C41.4605 0.15331 37.9435 2.60597 36.8437 6.21244C37.9928 8.02081 38.6044 10.1511 38.6044 12.4668C38.6044 12.7883 38.5882 13.1051 38.5643 13.4202C39.5604 14.2402 40.9069 14.8374 42.6092 15.1949C44.5746 15.6222 45.775 15.7539 45.775 16.8386C45.775 17.5942 45.1086 18.0544 43.8746 18.0544C42.1377 18.0544 40.3379 17.2255 38.1468 15.7791C37.4982 18.0519 36.1715 20.0321 34.2578 21.5213C34.5418 21.7548 34.8469 21.9835 35.1771 22.1955C38.2434 23.9377 41.4091 24.8255 44.5416 24.8255C50.7735 24.8255 54.8401 21.0119 54.8401 15.9837C54.8401 12.6968 52.7064 10.3628 49.5412 9.67301" fill="#39607A"/>
<path d="M36.8436 6.21227C35.7424 4.48078 34.1491 3.04432 32.1155 2.03309C30.6869 1.32865 28.8818 0.912226 26.6697 0.703613C26.5149 0.818851 24.1441 2.65188 24.1309 6.6562C24.1301 6.99094 24.1287 7.38826 24.1279 7.83408H24.4734C28.0131 7.83408 29.7836 9.3103 29.7836 12.4661V12.4666C29.7836 12.6284 29.7756 12.7817 29.767 12.9341C29.5963 15.8415 27.7946 17.0615 24.1259 17.1305C24.1275 20.8219 24.131 24.0355 24.131 24.3401C27.9077 24.2418 30.9591 23.7929 33.6018 21.9993C33.8284 21.8466 34.0454 21.6859 34.2578 21.5213C36.1715 20.032 37.4983 18.0518 38.1467 15.7789C38.3624 15.0226 38.5028 14.2338 38.5644 13.42C38.5882 13.105 38.6045 12.7882 38.6045 12.4667C38.6045 10.151 37.9928 8.02067 36.8436 6.21231" fill="#62BB46"/>
<path d="M24.1168 0.533419H15.7494V10.2259C15.7494 11.2593 16.0195 14.0256 16.0195 14.0256C9.16279 3.16418 8.51752 0.533419 8.51752 0.533419H1.66438C1.66438 0.533419 0 0.531417 0 2.07979V22.7988C0 22.7988 0.0339 24.3661 1.70474 24.3661H8.38135V17.4535C8.38135 16.4872 8.14425 13.5347 8.14425 13.5347C8.14425 13.5347 9.95768 17.6746 15.5467 24.3661H24.131V24.3402C24.1301 23.7116 24.1172 10.6957 24.131 6.65642C24.1441 2.65218 26.5149 0.81911 26.6697 0.703793C26.6747 0.699508 26.6845 0.692581 26.6845 0.692581C26.6845 0.692581 25.6657 0.533379 24.1168 0.533379V0.533419ZM58.9428 0.353556H60.1218L63.0335 4.98708H63.0514V0.353516H64.1142V6.64312H62.9352L60.0324 2.01841H60.0056V6.64312H58.9428V0.353556ZM69.1605 5.63013C69.1605 5.75346 69.1767 5.84155 69.2096 5.8944C69.2423 5.94725 69.3063 5.97368 69.4016 5.97368H69.5088C69.5504 5.97368 69.5981 5.96788 69.6517 5.95606V6.65197C69.616 6.66358 69.5698 6.6768 69.5133 6.69161C69.4556 6.70643 69.3975 6.71965 69.3391 6.73125C69.2796 6.74295 69.22 6.75167 69.1605 6.75768C69.1009 6.76341 69.0502 6.76649 69.0086 6.76649C68.8002 6.76649 68.6275 6.72525 68.4906 6.64316C68.3536 6.561 68.2643 6.41713 68.2226 6.21152C68.0202 6.40532 67.7716 6.54626 67.4768 6.63435C67.1821 6.72244 66.8977 6.76649 66.6239 6.76649C66.4154 6.76649 66.216 6.73846 66.0254 6.6828C65.8348 6.62703 65.6666 6.54486 65.5208 6.43615C65.3749 6.32756 65.2587 6.1895 65.1725 6.02213C65.0861 5.85476 65.043 5.65956 65.043 5.43633C65.043 5.15445 65.095 4.92541 65.1993 4.74923C65.3034 4.57305 65.4404 4.43511 65.6101 4.33521C65.7799 4.23543 65.9704 4.16344 66.1818 4.11939C66.3928 4.07542 66.606 4.04161 66.8204 4.01809C67.0048 3.98285 67.1806 3.95791 67.3473 3.94321C67.514 3.92864 67.6613 3.90357 67.7895 3.86834C67.9174 3.8331 68.0186 3.77885 68.0931 3.70537C68.1675 3.63198 68.2048 3.52186 68.2048 3.37503C68.2048 3.2459 68.1735 3.14019 68.111 3.05791C68.0485 2.97575 67.9709 2.91256 67.8788 2.86852C67.7863 2.82447 67.6836 2.79512 67.5706 2.78043C67.4574 2.76581 67.3502 2.75841 67.2491 2.75841C66.9633 2.75841 66.7279 2.81719 66.5435 2.93459C66.3588 3.0521 66.2546 3.23409 66.2309 3.48074H65.2127C65.2304 3.18712 65.302 2.94339 65.427 2.7496C65.552 2.5558 65.7112 2.40024 65.9049 2.28272C66.0982 2.16528 66.3171 2.08312 66.5613 2.03607C66.8053 1.9891 67.0554 1.9656 67.3116 1.9656C67.5377 1.9656 67.761 1.9891 67.9815 2.03607C68.2017 2.08312 68.3997 2.1594 68.5754 2.2651C68.751 2.37081 68.8925 2.50735 68.9997 2.67472C69.1069 2.84209 69.1605 3.04618 69.1605 3.28694V5.63013V5.63013ZM68.1423 4.36164C67.9874 4.46154 67.7968 4.52168 67.5706 4.54222C67.3431 4.56304 67.1166 4.5939 66.8918 4.63472C66.7859 4.6521 66.6814 4.67713 66.5792 4.70959C66.4779 4.74191 66.3886 4.78599 66.3113 4.84173C66.2338 4.89759 66.1728 4.97098 66.1282 5.06195C66.0835 5.15305 66.0612 5.26316 66.0612 5.39229C66.0612 5.50388 66.0939 5.5979 66.1594 5.67418C66.2244 5.75024 66.3051 5.8118 66.3961 5.85476C66.4884 5.89881 66.5896 5.92964 66.6998 5.94725C66.8099 5.96487 66.9097 5.97368 66.999 5.97368C67.112 5.97368 67.2341 5.95907 67.3652 5.92964C67.4963 5.90027 67.6216 5.84967 67.7359 5.77988C67.8503 5.71095 67.9491 5.61949 68.0261 5.51121C68.1034 5.40258 68.1423 5.26896 68.1423 5.1104V4.36164V4.36164ZM69.7946 2.08892H70.5628V0.723533H71.581V2.08892H72.5009V2.83769H71.581V5.26896C71.581 5.37467 71.5854 5.4658 71.5944 5.54204C71.6033 5.61844 71.6241 5.68299 71.6569 5.73584C71.6896 5.78869 71.7387 5.82833 71.8043 5.85476C71.8696 5.88119 71.9591 5.8944 72.0722 5.8944C72.1437 5.8944 72.2151 5.89304 72.2866 5.89C72.3589 5.88697 72.4307 5.87664 72.5009 5.85917V6.63435C72.3877 6.64609 72.2776 6.65774 72.1705 6.66959C72.0607 6.68144 71.9504 6.68733 71.84 6.68721C71.572 6.68721 71.3561 6.66218 71.1924 6.61233C71.0286 6.56252 70.9005 6.48901 70.8084 6.39211C70.7159 6.29521 70.6534 6.17341 70.6208 6.02654C70.5879 5.87983 70.5686 5.71246 70.5628 5.52442V2.83769H69.7946V2.08892V2.08892ZM73.2601 0.353556H74.2783V1.30492H73.2601V0.353556ZM73.2601 2.08892H74.2783V6.64316H73.2601V2.08888V2.08892ZM77.5026 6.76649C77.1333 6.76649 76.8044 6.70619 76.5157 6.58591C76.2268 6.46558 75.9826 6.29961 75.7833 6.0882C75.5836 5.87678 75.4318 5.62433 75.3277 5.33063C75.2234 5.03701 75.1714 4.714 75.1714 4.36164C75.1714 4.01521 75.2234 3.6952 75.3277 3.40146C75.4318 3.10788 75.5836 2.8553 75.7833 2.64389C75.9826 2.43247 76.2268 2.26662 76.5157 2.14618C76.8044 2.02586 77.1333 1.9656 77.5026 1.9656C77.8718 1.9656 78.2006 2.02586 78.4896 2.14618C78.7783 2.26662 79.0224 2.43247 79.222 2.64389C79.4214 2.8553 79.5732 3.10788 79.6775 3.40146C79.7816 3.6952 79.8338 4.01521 79.8338 4.36164C79.8338 4.714 79.7817 5.03701 79.6775 5.33063C79.5733 5.62433 79.4214 5.87678 79.222 6.0882C79.0224 6.29961 78.7783 6.46558 78.4896 6.58591C78.2007 6.70619 77.8718 6.76649 77.5026 6.76649V6.76649ZM77.5026 5.97368C77.7287 5.97368 77.9253 5.92671 78.0921 5.83274C78.2588 5.73888 78.3958 5.61556 78.503 5.46276C78.6101 5.31013 78.689 5.13835 78.7396 4.94744C78.7903 4.75618 78.8158 4.55931 78.8156 4.36164C78.8156 4.16784 78.7902 3.97404 78.7396 3.78025C78.689 3.58645 78.6101 3.41467 78.503 3.26492C78.3958 3.11517 78.2588 2.99333 78.0921 2.89935C77.9254 2.80545 77.7288 2.75841 77.5026 2.75841C77.2763 2.75841 77.0798 2.80545 76.9131 2.89935C76.7463 2.99333 76.6094 3.11517 76.5023 3.26492C76.3951 3.41467 76.316 3.58645 76.2656 3.78025C76.2148 3.97404 76.1896 4.16784 76.1896 4.36164C76.1896 4.56136 76.2148 4.75664 76.2656 4.94744C76.316 5.13835 76.3951 5.31013 76.5023 5.46276C76.6094 5.61556 76.7463 5.73888 76.9131 5.83274C77.0798 5.92671 77.2763 5.97368 77.5026 5.97368ZM80.6822 2.08892H81.6468V2.75841L81.6647 2.77602C81.8195 2.52357 82.022 2.3254 82.2721 2.18142C82.5221 2.03759 82.799 1.9656 83.1027 1.9656C83.6087 1.9656 84.0077 2.09485 84.2996 2.35319C84.5912 2.6117 84.7372 2.99929 84.7372 3.51598V6.64316H83.719V3.78025C83.7069 3.42212 83.6297 3.16226 83.4867 3.00065C83.3438 2.83921 83.1205 2.75841 82.8168 2.75841C82.644 2.75841 82.4893 2.78924 82.3524 2.8509C82.2154 2.91256 82.0992 2.99777 82.004 3.10636C81.9087 3.21511 81.8343 3.3428 81.7807 3.48955C81.7271 3.63642 81.7004 3.7921 81.7004 3.95643V6.64316H80.6822V2.08892ZM89.6763 5.63013C89.6763 5.75346 89.6926 5.84155 89.7254 5.8944C89.7581 5.94725 89.8222 5.97368 89.9174 5.97368H90.0246C90.0662 5.97368 90.1139 5.96788 90.1675 5.95606V6.65197C90.1318 6.66358 90.0856 6.6768 90.0292 6.69161C89.9715 6.70643 89.9134 6.71965 89.855 6.73125C89.7954 6.74295 89.7358 6.75167 89.6764 6.75768C89.6167 6.76341 89.5661 6.76649 89.5245 6.76649C89.316 6.76649 89.1434 6.72525 89.0065 6.64316C88.8694 6.561 88.7801 6.41713 88.7385 6.21152C88.5359 6.40532 88.2875 6.54626 87.9927 6.63435C87.698 6.72244 87.4136 6.76649 87.1398 6.76649C86.9312 6.76649 86.7318 6.73846 86.5413 6.6828C86.3506 6.62703 86.1824 6.54486 86.0367 6.43615C85.8907 6.32756 85.7746 6.1895 85.6884 6.02213C85.602 5.85476 85.5588 5.65956 85.5588 5.43633C85.5588 5.15445 85.6108 4.92541 85.7151 4.74923C85.8192 4.57305 85.9563 4.43511 86.126 4.33521C86.2957 4.23543 86.4862 4.16344 86.6976 4.11939C86.9087 4.07541 87.1218 4.0416 87.3363 4.01809C87.5207 3.98285 87.6964 3.95791 87.8632 3.94321C88.0298 3.92864 88.1771 3.90357 88.3053 3.86834C88.4332 3.8331 88.5345 3.77885 88.609 3.70537C88.6833 3.63198 88.7207 3.52186 88.7207 3.37503C88.7207 3.2459 88.6894 3.14019 88.6268 3.05791C88.5643 2.97575 88.4869 2.91256 88.3946 2.86852C88.3022 2.82447 88.1995 2.79512 88.0864 2.78043C87.9732 2.76581 87.866 2.75841 87.7649 2.75841C87.4791 2.75841 87.2437 2.81719 87.0593 2.93459C86.8746 3.0521 86.7704 3.23409 86.7467 3.48074H85.7285C85.7463 3.18712 85.8178 2.94339 85.9428 2.7496C86.0679 2.5558 86.2271 2.40024 86.4207 2.28272C86.6141 2.16528 86.8329 2.08312 87.0771 2.03607C87.3212 1.9891 87.5713 1.9656 87.8274 1.9656C88.0536 1.9656 88.2768 1.9891 88.4973 2.03607C88.7175 2.08312 88.9156 2.1594 89.0913 2.2651C89.2668 2.37081 89.4083 2.50735 89.5155 2.67472C89.6227 2.84209 89.6763 3.04618 89.6763 3.28694V5.63013V5.63013ZM88.6581 4.36164C88.5032 4.46154 88.3127 4.52168 88.0864 4.54222C87.8589 4.56303 87.6324 4.59389 87.4076 4.63472C87.3004 4.65234 87.1962 4.67736 87.095 4.70959C86.9938 4.74191 86.9044 4.78599 86.8271 4.84173C86.7496 4.89759 86.6886 4.97098 86.644 5.06195C86.5993 5.15305 86.577 5.26316 86.577 5.39229C86.577 5.50388 86.6097 5.5979 86.6752 5.67418C86.7403 5.75023 86.8209 5.81178 86.9119 5.85476C87.0042 5.89881 87.1054 5.92964 87.2156 5.94725C87.3257 5.96487 87.4255 5.97368 87.5148 5.97368C87.6278 5.97368 87.75 5.95907 87.881 5.92964C88.012 5.90033 88.1356 5.85036 88.2517 5.77988C88.3661 5.71096 88.4649 5.61949 88.542 5.51121C88.6193 5.40258 88.6581 5.26896 88.6581 5.1104V4.36164V4.36164ZM90.8018 0.353556H91.82V6.64316H90.8018V0.353556ZM58.9873 9.32269H61.6311C62.1193 9.32269 62.5422 9.40502 62.8994 9.56934C63.2567 9.73379 63.5484 9.95846 63.7747 10.2432C64.0009 10.5281 64.1692 10.8614 64.2794 11.2431C64.3895 11.6249 64.4446 12.0329 64.4446 12.4675C64.4446 12.9021 64.3895 13.3103 64.2794 13.6919C64.1692 14.0738 64.001 14.407 63.7747 14.6918C63.5484 14.9767 63.2567 15.2014 62.8994 15.3657C62.5422 15.5302 62.1193 15.6123 61.6311 15.6123H58.9873V9.32269V9.32269ZM60.1038 14.7138H61.2024C61.637 14.7138 61.9929 14.6565 62.2697 14.542C62.5466 14.4275 62.7639 14.2689 62.9218 14.0663C63.0795 13.8637 63.1867 13.6259 63.2433 13.3528C63.2999 13.0797 63.3282 12.7846 63.3282 12.4675C63.3282 12.1504 63.2999 11.8553 63.2433 11.5822C63.1867 11.3091 63.0795 11.0713 62.9218 10.8687C62.7639 10.6661 62.5466 10.5075 62.2697 10.393C61.9929 10.2785 61.637 10.2212 61.2024 10.2212H60.1038V14.7138ZM65.3198 9.32269H66.3381V10.2741H65.3198V9.32269ZM65.3198 11.0581H66.3381V15.6123H65.3198V11.0581ZM68.2137 14.15C68.2433 14.4438 68.3566 14.6493 68.5531 14.7666C68.7496 14.8842 68.9847 14.9428 69.2587 14.9428C69.3538 14.9428 69.4625 14.9355 69.5847 14.9208C69.7066 14.9061 69.8214 14.8782 69.9286 14.8371C70.0357 14.796 70.1235 14.7358 70.192 14.6564C70.2604 14.5772 70.2917 14.4731 70.2858 14.3437C70.2798 14.2146 70.2322 14.109 70.1429 14.0266C70.0536 13.9444 69.9389 13.8785 69.7991 13.8285C69.6591 13.7787 69.4998 13.736 69.3211 13.7008C69.1425 13.6655 68.9608 13.6274 68.7763 13.5862C68.5905 13.5465 68.4071 13.4965 68.227 13.4365C68.0513 13.3778 67.8934 13.2986 67.7536 13.1986C67.6137 13.0989 67.502 12.9711 67.4187 12.8155C67.3352 12.66 67.2936 12.4675 67.2936 12.2385C67.2936 11.9918 67.3546 11.7848 67.4767 11.6174C67.5987 11.4501 67.7536 11.3151 67.9412 11.2122C68.1287 11.1096 68.3371 11.0376 68.5664 10.9964C68.7956 10.9554 69.0144 10.9347 69.2229 10.9347C69.461 10.9347 69.6887 10.9598 69.9062 11.0096C70.1235 11.0597 70.3199 11.1404 70.4956 11.2519C70.6711 11.3636 70.8172 11.5089 70.9333 11.6879C71.0494 11.8672 71.1222 12.0829 71.1521 12.3354H70.0892C70.0415 12.0946 69.9298 11.9332 69.7543 11.8509C69.5786 11.7688 69.3776 11.7275 69.1514 11.7275C69.08 11.7275 68.9951 11.7335 68.8969 11.7452C68.7986 11.7571 68.7062 11.7791 68.62 11.8112C68.5335 11.8437 68.4606 11.8905 68.4012 11.9522C68.3415 12.0138 68.3118 12.0946 68.3118 12.1944C68.3118 12.3177 68.355 12.4177 68.4418 12.4939C68.5282 12.5703 68.6417 12.6335 68.7821 12.6833C68.9225 12.7334 69.0821 12.7758 69.2614 12.811C69.4406 12.8463 69.6256 12.8846 69.8169 12.9256C70.0014 12.9666 70.1837 13.0166 70.3632 13.0753C70.5423 13.1341 70.702 13.2133 70.8424 13.3132C70.9828 13.413 71.0963 13.5393 71.183 13.6919C71.2695 13.8447 71.3129 14.0326 71.3129 14.2557C71.3129 14.5259 71.2502 14.7549 71.1249 14.9428C70.9996 15.1308 70.8368 15.2835 70.6369 15.4009C70.4372 15.5184 70.2149 15.6035 69.9702 15.6563C69.7254 15.7091 69.4838 15.7355 69.2452 15.7355C68.9527 15.7355 68.6827 15.7032 68.4351 15.6386C68.1873 15.5741 67.9725 15.4757 67.7906 15.3435C67.6086 15.2114 67.4652 15.0471 67.3609 14.8502C67.2566 14.6536 67.2012 14.4202 67.1954 14.1499H68.2137V14.15ZM75.9485 14.5993C75.9485 14.7226 75.9648 14.8106 75.9977 14.8635C76.0303 14.9164 76.0944 14.9428 76.1897 14.9428H76.2969C76.3384 14.9428 76.3862 14.937 76.4398 14.9252V15.6211C76.404 15.6327 76.3578 15.6459 76.3013 15.6608C76.2437 15.6755 76.1856 15.6887 76.1272 15.7004C76.0676 15.712 76.008 15.7209 75.9485 15.7268C75.8889 15.7325 75.8383 15.7356 75.7967 15.7356C75.5882 15.7356 75.4155 15.6945 75.2787 15.6123C75.1416 15.5301 75.0524 15.3862 75.0107 15.1807C74.8082 15.3745 74.5597 15.5154 74.2649 15.6035C73.9702 15.6916 73.6858 15.7356 73.4119 15.7356C73.2035 15.7356 73.004 15.7077 72.8135 15.6519C72.6229 15.5962 72.4547 15.5141 72.3089 15.4053C72.1629 15.2968 72.0468 15.1586 71.9605 14.9913C71.8742 14.8239 71.831 14.6287 71.831 14.4055C71.831 14.1236 71.8831 13.8946 71.9873 13.7184C72.0915 13.5422 72.2285 13.4043 72.3982 13.3043C72.568 13.2046 72.7584 13.1326 72.9698 13.0885C73.1811 13.0445 73.3941 13.0108 73.6084 12.9872C73.7929 12.952 73.9687 12.927 74.1354 12.9124C74.302 12.8978 74.4493 12.8727 74.5775 12.8375C74.7055 12.8022 74.8067 12.748 74.8812 12.6745C74.9556 12.6012 74.9928 12.491 74.9928 12.3442C74.9928 12.2151 74.9616 12.1094 74.8991 12.027C74.8365 11.945 74.759 11.8817 74.6668 11.8377C74.5744 11.7936 74.4717 11.7643 74.3587 11.7496C74.2454 11.735 74.1382 11.7275 74.0371 11.7275C73.7513 11.7275 73.516 11.7864 73.3315 11.9037C73.1468 12.0213 73.0426 12.2032 73.0189 12.4499H72.0007C72.0185 12.1563 72.09 11.9125 72.2151 11.7187C72.34 11.5249 72.4993 11.3694 72.6929 11.2519C72.8863 11.1345 73.1052 11.0523 73.3494 11.0052C73.5934 10.9583 73.8435 10.9347 74.0997 10.9347C74.3258 10.9347 74.5491 10.9583 74.7695 11.0052C74.9898 11.0523 75.1878 11.1285 75.3635 11.2342C75.539 11.34 75.6806 11.4765 75.7878 11.6439C75.8949 11.8112 75.9485 12.0154 75.9485 12.2561V14.5993V14.5993ZM74.9303 13.3308C74.7754 13.4307 74.5849 13.4908 74.3587 13.5114C74.1311 13.5322 73.9046 13.563 73.6799 13.6039C73.574 13.6212 73.4695 13.6463 73.3673 13.6787C73.266 13.7111 73.1767 13.7552 73.0993 13.8109C73.0219 13.8668 72.9609 13.9402 72.9162 14.0311C72.8716 14.1222 72.8492 14.2323 72.8492 14.3614C72.8492 14.4731 72.8819 14.5671 72.9475 14.6433C73.0125 14.7194 73.0932 14.7809 73.1842 14.8239C73.2764 14.8679 73.3776 14.8988 73.4878 14.9165C73.5979 14.9341 73.6977 14.9429 73.7871 14.9429C73.9 14.9429 74.0221 14.9283 74.1533 14.8988C74.2842 14.8695 74.4078 14.8195 74.5239 14.749C74.64 14.6786 74.7367 14.5891 74.8142 14.4803C74.8915 14.3718 74.9303 14.2381 74.9303 14.0795V13.3308V13.3308ZM77.0739 9.32269H78.0921V11.6483H78.11C78.1814 11.5368 78.2686 11.4359 78.369 11.3488C78.4707 11.2603 78.5832 11.1849 78.704 11.1241C78.826 11.0625 78.9549 11.0152 79.088 10.9832C79.222 10.951 79.3544 10.9347 79.4855 10.9347C79.8486 10.9347 80.1657 10.9979 80.4367 11.1241C80.7076 11.2505 80.9324 11.4236 81.1111 11.6439C81.2897 11.8641 81.4237 12.121 81.513 12.4146C81.6023 12.7083 81.647 13.0225 81.647 13.3572C81.647 13.6626 81.6068 13.9593 81.5264 14.2469C81.446 14.5347 81.3239 14.7887 81.1602 15.0089C80.9963 15.2291 80.7895 15.4052 80.5394 15.5374C80.2893 15.6696 79.9946 15.7355 79.6552 15.7355C79.5003 15.7355 79.3439 15.7253 79.1863 15.7048C79.0313 15.6849 78.8796 15.6449 78.7352 15.5859C78.5923 15.5273 78.4628 15.4509 78.3467 15.3568C78.2306 15.2629 78.1338 15.1396 78.0564 14.9869H78.0385V15.6123H77.0739V9.32257V9.32269ZM80.6287 13.3396C80.6287 13.134 80.602 12.9344 80.5484 12.7406C80.4948 12.5468 80.4144 12.375 80.3072 12.2253C80.2018 12.0772 80.0646 11.9538 79.9053 11.864C79.7445 11.7731 79.5599 11.7275 79.3515 11.7275C78.9228 11.7275 78.5997 11.8744 78.3824 12.168C78.165 12.4617 78.0564 12.8522 78.0564 13.3396C78.0564 13.5686 78.0846 13.7815 78.1413 13.9782C78.1979 14.175 78.2827 14.3438 78.3959 14.4848C78.5089 14.6257 78.6444 14.7373 78.8023 14.8195C78.96 14.9018 79.1431 14.9428 79.3516 14.9428C79.5838 14.9428 79.7803 14.8958 79.9411 14.8019C80.1019 14.708 80.2343 14.5861 80.3385 14.4363C80.4426 14.2866 80.5172 14.1163 80.5618 13.9254C80.6066 13.7333 80.629 13.5367 80.6287 13.3396V13.3396ZM82.5312 9.32269H83.5494V10.2741H82.5312V9.32269V9.32269ZM82.5312 11.0581H83.5494V15.6123H82.5312V11.0581V11.0581ZM84.6837 9.32269H85.7019V15.6123H84.6837V9.32269ZM86.8362 9.32269H87.8544V10.2741H86.8362V9.32269ZM86.8362 11.0581H87.8544V15.6123H86.8362V11.0581ZM88.4975 11.0581H89.2656V9.69267H90.2838V11.0581H91.2038V11.8068H90.2838V14.2381C90.2838 14.3438 90.2883 14.4349 90.2972 14.5112C90.3061 14.5876 90.3269 14.6521 90.3597 14.705C90.3924 14.7578 90.4415 14.7975 90.5071 14.8239C90.5725 14.8503 90.6619 14.8635 90.775 14.8635C90.8465 14.8635 90.9179 14.8621 90.9894 14.8592C91.0617 14.8562 91.1336 14.8459 91.2038 14.8284V15.6036C91.0906 15.6152 90.9805 15.627 90.8733 15.6388C90.7635 15.6506 90.6532 15.6565 90.5428 15.6563C90.2748 15.6563 90.059 15.6313 89.8953 15.5815C89.7314 15.5317 89.6034 15.4582 89.5112 15.3613C89.4188 15.2644 89.3562 15.1425 89.3236 14.9956C89.2908 14.849 89.2714 14.6816 89.2656 14.4936V11.8069H88.4975V11.0581V11.0581ZM91.427 11.0581H92.5434L93.7492 14.4582H93.7671L94.9371 11.0581H96L94.1958 15.859C94.1165 16.0565 94.0353 16.2532 93.9523 16.4492C93.8726 16.637 93.7752 16.8029 93.6602 16.9469C93.5451 17.0907 93.4016 17.2053 93.2298 17.2905C93.058 17.3755 92.8382 17.4181 92.5703 17.4181C92.3321 17.4181 92.0969 17.4006 91.8647 17.3654V16.5197C91.948 16.5314 92.0284 16.5447 92.1058 16.5594C92.1831 16.5739 92.2635 16.5814 92.347 16.5814C92.466 16.5814 92.5643 16.5666 92.6417 16.5372C92.719 16.5079 92.783 16.4653 92.8338 16.4096C92.8843 16.3537 92.9275 16.2877 92.9633 16.2114C92.999 16.135 93.0316 16.047 93.0615 15.9472L93.1776 15.5948L91.427 11.0582L91.427 11.0581ZM59.7198 22.4849C59.7198 22.7258 59.7613 22.9312 59.8449 23.1015C59.9282 23.2719 60.0442 23.4113 60.1932 23.52C60.3419 23.6287 60.5131 23.7079 60.7068 23.7577C60.9001 23.8078 61.11 23.8327 61.3364 23.8327C61.5805 23.8327 61.7889 23.8048 61.9616 23.749C62.1343 23.6932 62.2742 23.6213 62.3814 23.5332C62.4886 23.4451 62.5659 23.3438 62.6136 23.2293C62.6612 23.1147 62.6851 22.9988 62.6851 22.8813C62.6851 22.6405 62.63 22.4629 62.5199 22.3484C62.4096 22.2338 62.289 22.1531 62.1582 22.106C61.9318 22.024 61.6683 21.9461 61.3677 21.8726C61.067 21.7992 60.6963 21.7039 60.2556 21.5864C59.9817 21.5159 59.754 21.4234 59.5724 21.3088C59.3907 21.1943 59.2464 21.0666 59.1392 20.9257C59.032 20.7848 58.9561 20.635 58.9114 20.4765C58.8668 20.3179 58.8444 20.1564 58.8444 19.992C58.8444 19.6748 58.9114 19.4003 59.0455 19.1683C59.1795 18.9363 59.3565 18.7441 59.5769 18.5913C59.7971 18.4386 60.0472 18.3256 60.3272 18.2521C60.6039 18.1791 60.8891 18.1421 61.1756 18.142C61.509 18.142 61.8232 18.1846 62.1179 18.2697C62.4127 18.3549 62.6717 18.4826 62.895 18.6529C63.1183 18.8232 63.2953 19.0332 63.4264 19.2828C63.5573 19.5325 63.623 19.8217 63.623 20.1504H62.5065C62.4766 19.7452 62.3368 19.4589 62.0867 19.2916C61.8366 19.1242 61.5179 19.0405 61.131 19.0405C60.9999 19.0405 60.8659 19.0537 60.7291 19.0802C60.592 19.1066 60.467 19.1506 60.354 19.2123C60.2416 19.2732 60.1453 19.3592 60.0726 19.4633C59.998 19.5691 59.961 19.7012 59.961 19.8597C59.961 20.083 60.0309 20.2576 60.1709 20.3839C60.3107 20.5103 60.4938 20.6056 60.7202 20.6702C60.7439 20.6761 60.8376 20.701 61.0015 20.7451C61.1652 20.7891 61.3482 20.8375 61.5508 20.8904C61.7532 20.9433 61.9512 20.9947 62.1448 21.0446C62.3382 21.0945 62.4766 21.1313 62.5601 21.1547C62.7685 21.2193 62.95 21.3075 63.1049 21.4189C63.2596 21.5307 63.3892 21.6583 63.4934 21.8021C63.5975 21.9461 63.675 22.1002 63.7256 22.2646C63.7762 22.429 63.8015 22.5936 63.8015 22.7579C63.8015 23.1103 63.7286 23.4112 63.5827 23.6608C63.4368 23.9105 63.2447 24.1145 63.0066 24.273C62.7685 24.4316 62.4975 24.5476 62.1938 24.621C61.8898 24.6944 61.5779 24.7314 61.2649 24.7311C60.9016 24.7311 60.5593 24.6871 60.2378 24.599C59.9162 24.5109 59.6363 24.3759 59.3982 24.1938C59.16 24.0118 58.9695 23.7783 58.8266 23.4935C58.6837 23.2088 58.6092 22.8724 58.6033 22.4848H59.7197L59.7198 22.4849ZM65.4271 22.5642C65.4271 22.7402 65.4524 22.9107 65.503 23.0751C65.5535 23.2396 65.6294 23.3834 65.7307 23.5067C65.8319 23.6301 65.9599 23.7285 66.1148 23.8018C66.2696 23.8753 66.4542 23.912 66.6686 23.912C66.9663 23.912 67.2059 23.8489 67.3876 23.7226C67.5691 23.5964 67.7046 23.4069 67.794 23.1544H68.7586C68.705 23.401 68.6126 23.6212 68.4817 23.8151C68.3507 24.0089 68.1928 24.1717 68.0084 24.304C67.8237 24.4361 67.6168 24.536 67.3877 24.6035C67.1583 24.6709 66.9187 24.7048 66.6687 24.7048C66.3053 24.7048 65.9837 24.646 65.7039 24.5286C65.424 24.4111 65.1872 24.2467 64.9939 24.0353C64.8003 23.8239 64.6545 23.5714 64.5562 23.2777C64.458 22.9841 64.4088 22.6611 64.4088 22.3087C64.4088 21.9858 64.4609 21.6789 64.5652 21.3882C64.6692 21.0975 64.8182 20.842 65.0117 20.6218C65.2052 20.4016 65.4389 20.2269 65.713 20.0976C65.9868 19.9687 66.2964 19.9039 66.6419 19.9039C67.005 19.9039 67.331 19.9787 67.6199 20.1285C67.9086 20.2783 68.1483 20.4765 68.3389 20.7231C68.5294 20.9698 68.6679 21.2532 68.7542 21.5732C68.8404 21.8933 68.8627 22.2236 68.8212 22.5642H65.427H65.4271ZM67.8029 21.9035C67.7913 21.7467 67.7567 21.5924 67.7002 21.4454C67.6435 21.2987 67.5662 21.171 67.468 21.0623C67.3697 20.9537 67.2505 20.8657 67.1107 20.798C66.9707 20.7305 66.8143 20.6967 66.6418 20.6967C66.4631 20.6967 66.3008 20.7275 66.155 20.7892C66.009 20.8508 65.8839 20.9361 65.7799 21.0446C65.6756 21.1534 65.5923 21.2811 65.5298 21.4278C65.4673 21.5747 65.4329 21.7333 65.4271 21.9035H67.8029V21.9035ZM69.5982 20.0272H70.5539V20.9081H70.5717C70.6014 20.7847 70.6595 20.6644 70.7459 20.5469C70.8322 20.4295 70.9364 20.3223 71.0585 20.2254C71.1813 20.128 71.3183 20.0493 71.4649 19.9919C71.6137 19.9333 71.7655 19.9038 71.9205 19.9038C72.0395 19.9038 72.1213 19.9069 72.1661 19.9126C72.2107 19.9186 72.2567 19.9245 72.3045 19.9303V20.8992C72.2318 20.8873 72.1589 20.877 72.0857 20.8684C72.0131 20.8598 71.94 20.8554 71.8669 20.8553C71.694 20.8553 71.5319 20.889 71.3801 20.9566C71.2282 21.0241 71.0956 21.124 70.9826 21.256C70.8694 21.3881 70.78 21.5511 70.7147 21.7449C70.649 21.9387 70.6164 22.1619 70.6164 22.4144V24.5814H69.5982V20.0272V20.0272Z" fill="#39607A"/>
<path d="M72.2866 20.0274H73.3941L74.5641 23.5245H74.582L75.7074 20.0274H76.7613L75.109 24.5816H73.9657L72.2866 20.0274ZM77.4044 18.292H78.4227V19.2434H77.4044V18.292ZM77.4044 20.0274H78.4227V24.5816H77.4044V20.0274ZM82.6474 21.5514C82.6056 21.2695 82.491 21.0567 82.3034 20.9127C82.1158 20.7688 81.8792 20.6969 81.5933 20.6969C81.4623 20.6969 81.3223 20.7189 81.1735 20.7629C81.0246 20.807 80.8877 20.8892 80.7627 21.0096C80.6377 21.13 80.5335 21.2974 80.4502 21.5117C80.3667 21.7261 80.3251 22.0065 80.3251 22.353C80.3251 22.5409 80.3474 22.7289 80.3921 22.9167C80.4368 23.1047 80.5082 23.2721 80.6064 23.4189C80.7046 23.5657 80.8311 23.6846 80.986 23.7756C81.1408 23.8667 81.3284 23.9122 81.5487 23.9122C81.8463 23.9122 82.092 23.8211 82.2855 23.6391C82.479 23.4571 82.5996 23.2016 82.6473 22.8727H83.6655C83.5701 23.4659 83.3424 23.9196 82.9822 24.2337C82.6219 24.5479 82.1441 24.705 81.5487 24.705C81.1854 24.705 80.8654 24.6446 80.5885 24.5244C80.3116 24.4041 80.0779 24.2396 79.8874 24.0311C79.6968 23.8227 79.5524 23.5745 79.4542 23.2867C79.3559 22.999 79.3068 22.6877 79.3068 22.353C79.3068 22.0124 79.3544 21.6923 79.4497 21.3928C79.5449 21.0933 79.6878 20.8334 79.8784 20.6132C80.069 20.393 80.3056 20.2198 80.5885 20.0935C80.8713 19.9672 81.2033 19.904 81.5844 19.904C81.8524 19.904 82.1069 19.9379 82.3481 20.0054C82.5892 20.073 82.8036 20.1742 82.9911 20.3093C83.1787 20.4444 83.332 20.6147 83.4511 20.8202C83.5702 21.0259 83.6417 21.2695 83.6655 21.5514H82.6474V21.5514ZM85.2911 22.5644C85.2911 22.7404 85.3164 22.9109 85.367 23.0753C85.4176 23.2398 85.4935 23.3836 85.5948 23.5069C85.696 23.6303 85.8239 23.7287 85.9788 23.802C86.1336 23.8755 86.3183 23.9122 86.5326 23.9122C86.8303 23.9122 87.0699 23.8491 87.2516 23.7228C87.4332 23.5966 87.5687 23.4071 87.658 23.1546H88.6226C88.569 23.4012 88.4766 23.6214 88.3457 23.8153C88.2147 24.0091 88.0569 24.1719 87.8724 24.3042C87.6878 24.4363 87.4808 24.5362 87.2517 24.6037C87.0224 24.6711 86.7828 24.705 86.5327 24.705C86.1693 24.705 85.8478 24.6462 85.5681 24.5288C85.2881 24.4113 85.0513 24.2469 84.858 24.0355C84.6643 23.8241 84.5186 23.5716 84.4203 23.2779C84.3221 22.9843 84.273 22.6613 84.273 22.3089C84.273 21.986 84.325 21.6791 84.4293 21.3884C84.5333 21.0977 84.6822 20.8422 84.8759 20.622C85.0693 20.4018 85.303 20.2271 85.577 20.0978C85.8508 19.9689 86.1605 19.9041 86.5059 19.9041C86.8691 19.9041 87.1951 19.979 87.4839 20.1287C87.7727 20.2785 88.0123 20.4767 88.2029 20.7233C88.3934 20.97 88.5319 21.2534 88.6182 21.5734C88.7045 21.8935 88.7268 22.2238 88.6852 22.5644H85.2911ZM87.6669 21.9037C87.6553 21.7469 87.6207 21.5926 87.5642 21.4456C87.5075 21.2989 87.4302 21.1712 87.332 21.0625C87.2337 20.9539 87.1146 20.8659 86.9747 20.7982C86.8347 20.7307 86.6784 20.6969 86.5058 20.6969C86.3272 20.6969 86.1649 20.7277 86.019 20.7894C85.873 20.851 85.748 20.9363 85.6439 21.0448C85.5397 21.1536 85.4563 21.2813 85.3938 21.428C85.3313 21.5749 85.297 21.7335 85.2911 21.9037H87.6669ZM90.2304 23.1194C90.26 23.4131 90.3733 23.6187 90.5698 23.736C90.7663 23.8535 91.0013 23.9122 91.2754 23.9122C91.3706 23.9122 91.4792 23.9048 91.6014 23.8901C91.7233 23.8755 91.8381 23.8475 91.9453 23.8065C92.0524 23.7654 92.1402 23.7051 92.2087 23.6258C92.2771 23.5466 92.3084 23.4424 92.3025 23.3131C92.2965 23.184 92.2489 23.0783 92.1596 22.9959C92.0703 22.9138 91.9555 22.8478 91.8158 22.7978C91.6758 22.748 91.5165 22.7053 91.3378 22.67C91.1592 22.6348 90.9775 22.5967 90.793 22.5556C90.6072 22.5159 90.4238 22.4659 90.2437 22.4058C90.068 22.3472 89.9101 22.2679 89.7703 22.168C89.6304 22.0683 89.5187 21.9405 89.4354 21.7848C89.3519 21.6293 89.3103 21.4368 89.3103 21.2078C89.3103 20.9612 89.3713 20.7541 89.4934 20.5868C89.6154 20.4194 89.7703 20.2844 89.9579 20.1816C90.1454 20.0789 90.3538 20.0069 90.5831 19.9658C90.8123 19.9247 91.0311 19.9041 91.2396 19.9041C91.4777 19.9041 91.7055 19.9292 91.9229 19.979C92.1402 20.0289 92.3366 20.1098 92.5123 20.2212C92.6879 20.3329 92.8339 20.4782 92.95 20.6572C93.0661 20.8365 93.1389 21.0523 93.1688 21.3047H92.106C92.0582 21.0641 91.9465 20.9025 91.771 20.8202C91.5953 20.738 91.3943 20.6969 91.1681 20.6969C91.0967 20.6969 91.0118 20.7028 90.9135 20.7145C90.8152 20.7264 90.7229 20.7484 90.6367 20.7806C90.5503 20.8129 90.4773 20.8598 90.4179 20.9215C90.3582 20.9832 90.3285 21.0641 90.3285 21.1638C90.3285 21.2871 90.3717 21.387 90.4585 21.4633C90.5449 21.5396 90.6585 21.6028 90.7988 21.6527C90.9392 21.7026 91.0989 21.7452 91.2781 21.7804C91.4573 21.8156 91.6424 21.8539 91.8336 21.8949C92.0181 21.9359 92.2004 21.9859 92.3799 22.0447C92.5591 22.1034 92.7188 22.1826 92.8592 22.2825C92.9996 22.3824 93.113 22.5086 93.1997 22.6613C93.2862 22.814 93.3296 23.0019 93.3296 23.2251C93.3296 23.4953 93.267 23.7242 93.1417 23.9122C93.0163 24.1002 92.8535 24.2528 92.6537 24.3702C92.4539 24.4877 92.2316 24.5728 91.9869 24.6256C91.7421 24.6785 91.5005 24.7049 91.2619 24.7049C90.9694 24.7049 90.6994 24.6726 90.4518 24.608C90.2041 24.5434 89.9893 24.445 89.8073 24.3129C89.6254 24.1808 89.482 24.0165 89.3776 23.8196C89.2733 23.623 89.2179 23.3895 89.2121 23.1193H90.2304L90.2304 23.1194Z" fill="#39607A"/>
</g>
<defs>
<clipPath id="clip0">
<rect width="96" height="25" fill="white"/>
</clipPath>
</defs>
</svg>
