<svg width="112" height="25" viewBox="0 0 112 25" fill="none" xmlns="http://www.w3.org/2000/svg">
<path d="M68.5619 0C69.4221 0 70.1568 0.305303 70.7661 0.91591C71.3754 1.52652 71.68 2.26284 71.68 3.12487C71.68 3.9869 71.3754 4.72322 70.7661 5.33383C70.1568 5.94444 69.4221 6.24974 68.5619 6.24974C67.7018 6.24974 66.967 5.94444 66.3578 5.33383C65.7485 4.72322 65.4438 3.9869 65.4438 3.12487C65.4438 2.26284 65.7485 1.52652 66.3578 0.91591C66.967 0.305303 67.7018 0 68.5619 0ZM8.99584 11.5836C7.13216 11.5836 6.03904 12.4276 5.68064 14.0978H12.1498C12.0064 13.3615 11.6301 12.7509 11.0387 12.284C10.4474 11.817 9.7664 11.5836 8.99584 11.5836ZM53.079 12.8227C51.968 12.8227 51.0899 13.164 50.4448 13.8464C49.7997 14.5288 49.4771 15.3729 49.4771 16.3786C49.4771 17.4023 49.7997 18.2464 50.4448 18.9109C51.0899 19.5753 51.968 19.9166 53.079 19.9166C54.1901 19.9166 55.0682 19.5753 55.7133 18.9109C56.3584 18.2464 56.681 17.4023 56.681 16.3786C56.681 15.3729 56.3584 14.5288 55.7133 13.8464C55.0682 13.164 54.1901 12.8227 53.079 12.8227ZM71.3574 8.47666V24.982H65.7664V10.3983L71.3574 8.47666ZM42.7392 8.26115V13.6489C42.1299 13.3076 41.3414 13.128 40.3738 13.128C37.7933 13.128 36.521 14.7264 36.521 17.9051V25H30.9299V10.3983L36.521 8.47666V11.0628C37.5782 9.19502 39.2806 8.26115 41.664 8.26115H42.7392ZM26.0019 3.73548V8.47666H29.1558V13.0742H26.0019V24.9641H20.4109V13.0742H18.601V8.47666H20.4109V5.65709L26.0019 3.73548ZM85.6934 7.95585C89.6538 7.95585 91.6429 10.1468 91.6429 14.5109V24.982H86.0518V16.5762C86.0518 15.2652 85.9802 14.3852 85.8368 13.9362C85.4963 12.9305 84.7258 12.4276 83.543 12.4276C81.6077 12.4276 80.64 13.6489 80.64 16.0913V24.982H75.049V10.3983L80.64 8.47666V10.506C81.7869 8.79992 83.4714 7.95585 85.6934 7.95585ZM112 8.47666V17.977C112 22.5027 109.204 24.7834 103.613 24.7834C98.0224 24.7834 95.2269 22.5206 95.2269 17.977V10.3983L100.818 8.47666V16.8994C100.818 18.0129 100.997 18.8211 101.338 19.3598C101.786 19.9884 102.538 20.3117 103.596 20.3117C104.653 20.3117 105.405 19.9884 105.853 19.3598C106.194 18.8211 106.373 18.0129 106.373 16.8994V8.47666H112ZM8.70912 7.95585C11.433 7.95585 13.5475 8.74604 15.0528 10.3085C16.576 11.8889 17.3286 14.026 17.3286 16.7378V17.3305H5.59104C5.59104 19.6651 6.75584 20.8325 9.08544 20.8325C10.2861 20.8325 11.1821 20.3476 11.7555 19.3957H17.1315C16.7014 21.1557 15.7158 22.5206 14.1568 23.4904C12.7232 24.3704 11.0387 24.8194 9.12128 24.8194C6.41536 24.8194 4.24704 24.101 2.61632 22.6643C0.87808 21.1018 0 19.0366 0 16.3786C0 13.7746 0.8064 11.7272 2.40128 10.2007C4.01408 8.71012 6.11072 7.95585 8.70912 7.95585ZM51.6096 7.95585C53.6883 7.95585 55.319 8.63829 56.4838 10.0211V8.47666H62.0749V24.982H56.4838V22.5027C55.5341 24.0112 53.9392 24.7834 51.6992 24.7834C49.4054 24.7834 47.488 23.9394 45.9648 22.2512C44.4595 20.6349 43.7069 18.6594 43.7069 16.3427C43.7069 14.026 44.4416 12.0505 45.929 10.3983C47.4163 8.78196 49.3158 7.95585 51.6096 7.95585Z" fill="url(#paint0_linear)"/>
<defs>
<linearGradient id="paint0_linear" x1="112" y1="12.5" x2="-1.31589e-06" y2="12.5" gradientUnits="userSpaceOnUse">
<stop stop-color="#0052CC"/>
<stop offset="1" stop-color="#05BC87"/>
</linearGradient>
</defs>
</svg>
