<svg width="125" height="175" viewBox="0 0 125 175" fill="none" xmlns="http://www.w3.org/2000/svg">
<path opacity="0.8" fill-rule="evenodd" clip-rule="evenodd" d="M96.3044 121.427V130.315H90.4171L82.3784 168.944H90.4171L84.5323 175.772H42.9288L37.9941 168.944H46.3703L38.5896 130.315L32.0354 130.315V121.427H96.3038H96.3044Z" fill="#F5F5F7"/>
<path opacity="0.8" fill-rule="evenodd" clip-rule="evenodd" d="M32.1452 130.203H96.1942V121.537H32.1452V130.203ZM31.9253 130.426H96.4131V121.316H31.9253V130.426Z" fill="white"/>
<path fill-rule="evenodd" clip-rule="evenodd" d="M45.4465 36.5239C45.4547 36.5229 45.4845 36.6031 45.5339 36.7598C45.5868 36.9444 45.6546 37.1755 45.7394 37.4651L46.4896 40.1867C46.8184 41.3684 47.2032 42.8184 47.6009 44.5146C48.0027 46.2092 48.496 48.1313 48.9394 50.2805C49.409 52.4224 49.9146 54.7712 50.3832 57.3067C50.8945 59.8354 51.343 62.5555 51.8332 65.4152C52.7581 71.1413 53.6393 77.4616 54.3879 84.1144C55.8533 97.4215 56.6086 109.522 57.0844 118.278C57.3208 122.658 57.4842 126.203 57.5828 128.655L57.6861 131.476C57.6928 131.778 57.6984 132.019 57.7015 132.211V132.32C57.7015 132.413 57.6979 132.462 57.6917 132.462C57.683 132.462 57.6712 132.379 57.6553 132.213C57.6398 132.022 57.6188 131.782 57.5941 131.481L57.405 128.664L56.7607 118.298C56.2032 109.549 55.3955 97.4593 53.9327 84.1661C53.1851 77.5185 52.3188 71.2059 51.4175 65.4829C50.9387 62.6263 50.503 59.9073 50.0112 57.3796C49.5591 54.8415 49.0715 52.4938 48.6239 50.3493C48.2006 48.198 47.7299 46.2733 47.3507 44.5745C46.9787 42.8742 46.6185 41.4185 46.3179 40.2312C46.0343 39.0677 45.8113 38.1493 45.65 37.4899C45.5832 37.1957 45.5303 36.9599 45.4866 36.7732C45.4532 36.6113 45.4403 36.526 45.447 36.5239H45.4465ZM74.4292 58.2359C74.4447 58.2411 74.3727 58.4841 74.2258 58.9382C74.0583 59.43 73.8363 60.0898 73.5563 60.9167C73.4073 61.3495 73.2429 61.8248 73.0651 62.3424C72.9053 62.8735 72.7331 63.447 72.5477 64.0608C72.1721 65.2916 71.7358 66.6914 71.3489 68.2655C71.1434 69.0495 70.9276 69.8712 70.7046 70.7255C70.5114 71.5891 70.309 72.4863 70.1024 73.4151C69.6523 75.2679 69.3281 77.2816 68.914 79.3811C68.2064 83.6081 67.5822 88.2808 67.1516 93.209C66.7457 98.1414 66.5689 102.854 66.5067 107.141C66.4944 111.429 66.5478 115.293 66.7231 118.532C66.7796 120.153 66.8834 121.617 66.9656 122.902C67.0396 124.19 67.1197 125.297 67.2009 126.199C67.2677 127.072 67.3196 127.766 67.3602 128.285C67.3895 128.76 67.3987 129.014 67.3833 129.015C67.3679 129.017 67.3288 128.769 67.2677 128.293C67.206 127.778 67.1264 127.085 67.0242 126.217C66.9152 125.314 66.8083 124.208 66.7107 122.922C66.6028 121.635 66.4775 120.172 66.3999 118.55C66.182 115.306 66.0957 111.436 66.0844 107.139C66.1245 102.842 66.2889 98.1145 66.6958 93.1697C67.1274 88.2291 67.7651 83.5424 68.4983 79.3072C68.9263 77.2009 69.2649 75.1862 69.7314 73.3313C69.9493 72.4025 70.1579 71.5048 70.3614 70.6391L71.0365 68.1797C71.4455 66.6066 71.9044 65.2099 72.3031 63.9827C72.5019 63.371 72.6874 62.7995 72.8575 62.2721C73.0507 61.7586 73.2274 61.2859 73.3883 60.8567C73.7027 60.0402 73.9529 59.3907 74.1384 58.9046C74.3162 58.4609 74.4159 58.2302 74.4292 58.2359ZM61.4914 33.6472C61.6152 33.6462 61.7766 54.4987 61.85 80.3885L61.8521 81.1745C61.8742 89.0472 61.8855 96.4736 61.8881 103.013V106.826C61.884 119.982 61.8377 128.698 61.7565 128.698C61.6301 128.698 61.4678 107.42 61.3943 81.1755C61.3722 73.2998 61.3609 65.8713 61.3583 59.3317L61.3588 54.9041C61.364 42.0913 61.4102 33.6472 61.4909 33.6472H61.4914ZM76.0735 75.4463C76.0868 75.4536 76.0277 75.6247 75.9003 75.9407L75.3269 77.3194L74.9081 78.3102C74.7745 78.6846 74.6317 79.0879 74.4791 79.5187L73.9838 80.9035C73.8127 81.3948 73.676 81.9311 73.5085 82.4834C72.8061 84.6894 72.2486 87.3929 71.7112 90.4036C71.2436 93.4278 70.8921 96.7777 70.7159 100.307C70.4035 107.374 70.8002 113.783 71.2236 118.398C71.4311 120.707 71.6387 122.573 71.7908 123.863C71.8576 124.467 71.9121 124.958 71.9542 125.348C71.985 125.689 71.9953 125.869 71.9789 125.871C71.9635 125.873 71.9234 125.697 71.8633 125.361C71.7975 124.975 71.7153 124.485 71.6156 123.886C71.4075 122.604 71.1501 120.741 70.9014 118.43C70.3948 113.813 69.9447 107.385 70.2581 100.286C70.4359 96.7394 70.8027 93.3719 71.296 90.3333C71.8586 87.3092 72.4531 84.5953 73.1997 82.3887C73.3785 81.8354 73.5249 81.2997 73.7084 80.8089C73.8959 80.3213 74.0732 79.8605 74.2391 79.4266C74.4061 79 74.5603 78.5992 74.7047 78.2269C74.865 77.8649 75.0258 77.5407 75.1635 77.247C75.4302 76.6988 75.6454 76.2541 75.8165 75.9009C75.9707 75.5963 76.0591 75.4391 76.0735 75.4463Z" fill="white"/>
<path opacity="0.6" fill-rule="evenodd" clip-rule="evenodd" d="M79.0397 74.2201C79.7765 72.5032 81.7465 72.5544 83.6399 72.7468L83.8978 72.7737L84.1537 72.8016L84.407 72.8296C90.1402 73.4532 95.639 76.0848 99.7372 80.1691C103.835 84.2533 106.506 89.7607 107.183 95.5241C107.959 102.128 106.199 108.92 107.59 115.422C100.058 115.461 92.6799 112.44 86.7901 107.715C80.8992 102.991 76.4265 96.6441 73.1863 89.8016C71.722 86.7092 70.4713 83.2786 71.1501 79.9219C71.8278 76.5668 75.7487 73.3456 79.0392 74.2201H79.0397ZM54.9182 38.5561C57.926 38.5871 60.9524 40.8614 61.2324 43.8773C63.8462 42.9434 67.4254 45.4121 68.9592 47.7366C70.4945 50.0606 70.8588 52.9653 70.941 55.7546C71.3479 69.6875 65.4123 83.6819 55.136 93.0264C54.6515 93.4659 54.1284 93.9132 53.4908 94.0492C52.3229 94.3 51.2213 93.4566 50.3699 92.6137C45.1393 87.4305 42.1807 80.2058 41.3144 72.8683C40.4481 65.5309 41.5554 58.0693 43.5819 50.9666C44.4117 48.0562 45.4265 45.1324 47.2659 42.7365C49.1049 40.3407 51.9098 38.5251 54.9182 38.5561ZM32.9896 33.903C37.1104 33.7386 40.5858 34.2329 43.8717 36.7405C45.1855 38.0519 45.6947 40.0242 45.5534 41.8802C45.4111 43.7361 44.6861 45.498 43.8182 47.1414C40.2025 53.9933 34.0691 59.2307 27.331 62.9985C21.0008 66.5377 14.1049 68.8963 7.21717 71.1629L5.88434 71.6003C5.1835 71.832 4.40712 72.0606 3.7294 71.7684C3.08508 71.4897 2.71051 70.8169 2.42431 70.1741C-0.458702 63.7163 0.879785 55.872 4.73031 49.9478C8.58032 44.0221 14.6367 39.8365 21.0799 36.9965C24.858 35.3308 28.8683 34.0675 32.9896 33.903ZM84.0807 37.5291C89.7024 33.6336 97.183 33.3316 103.772 35.1209C110.04 36.8222 115.697 40.2073 121.235 43.6348L122.087 44.1623C123.219 44.864 124.535 46.0213 123.825 47.3203C123.617 47.702 123.272 47.9916 122.882 48.1813C116.131 51.4697 108.721 53.3759 101.23 53.7534C96.6415 53.985 91.8846 53.6763 87.6199 55.3994C86.4957 55.8544 85.4311 56.4414 84.3736 57.0407C82.2341 58.2539 79.8572 58.9815 77.4099 59.1863L73.9607 59.4743C75.0756 51.4883 77.4808 42.1005 84.0807 37.5291ZM43.4503 0.393894C50.9813 0.93946 58.2225 5.31743 61.9112 11.9496C65.5978 18.5817 65.7186 27.3505 61.4909 33.646L38.5953 20.0493L38.77 19.7297C37.357 22.305 35.9456 24.8787 34.5326 27.4519C34.4334 27.6324 34.3024 27.8346 34.0994 27.8522L34.0727 27.8537C33.8636 27.8537 33.7048 27.651 33.5882 27.47L22.387 10.167L22.404 10.1582C22.3819 10.1112 22.3639 10.0615 22.3495 10.0098C22.1985 9.43943 22.6218 8.8918 23.0303 8.46827C28.2851 3.01261 35.9189 -0.150637 43.4503 0.393894Z" fill="white"/>
<path fill-rule="evenodd" clip-rule="evenodd" d="M60.9821 43.983C60.9965 43.9903 60.9462 44.1645 60.8367 44.4919C60.7057 44.8658 60.5387 45.3363 60.3357 45.9176C59.8826 47.1452 59.267 48.9397 58.5472 51.1679C57.8216 53.3936 57.0432 56.0739 56.2643 59.0691C55.9719 60.2285 55.6816 61.4354 55.399 62.6838C55.6128 62.8803 56.2427 63.628 57.1239 64.7564C58.1839 66.1113 59.6025 68.0195 61.0957 70.18C62.5883 72.3411 63.8739 74.3423 64.7679 75.8125C65.6619 77.2827 66.1706 78.2197 66.1192 78.2518C66.0643 78.2864 65.458 77.4125 64.4956 75.9889C63.4505 74.4551 62.1526 72.55 60.719 70.4427L56.8654 64.9519C56.0901 63.8556 55.5521 63.0809 55.3785 62.7758L55.287 63.1828C54.878 65.016 54.4875 66.9335 54.1325 68.912C53.5184 72.4326 53.0771 75.8089 52.7559 78.8879C52.4595 81.9715 52.2719 84.7557 52.1887 87.0967C52.0988 89.4393 52.0618 91.3361 52.0644 92.6475C52.0577 93.2613 52.052 93.7624 52.0464 94.157C52.0376 94.5035 52.0243 94.6844 52.0099 94.6855C51.9929 94.6855 51.9739 94.5045 51.9539 94.159L51.8866 92.6496C51.8285 91.3371 51.8162 89.4356 51.8655 87.0863C51.9076 84.7376 52.0608 81.9425 52.3372 78.848C52.6316 75.7789 53.0586 72.4166 53.6675 68.9131C53.4054 69.2047 53.0067 69.6226 52.5011 70.1304C51.511 71.1222 50.1077 72.4538 48.5062 73.8681C46.9041 75.2814 45.4079 76.5081 44.3011 77.3639C43.1949 78.2208 42.4822 78.7136 42.4442 78.6645C42.4031 78.6127 43.0454 78.0305 44.0971 77.1115C45.2702 76.0851 46.6642 74.8672 48.2051 73.5217L52.2786 69.8925C52.9214 69.3195 53.4183 68.8856 53.7147 68.6483L53.6813 68.8313C54.3159 65.3009 55.0738 61.9681 55.8553 58.9626C56.6599 55.9606 57.4738 53.2845 58.2404 51.065C58.6735 49.7991 59.0759 48.6759 59.435 47.7203C59.3533 47.7808 59.2583 47.8511 59.1504 47.9287L59.0101 48.0295C57.6151 49.026 54.4819 51.1193 50.8096 53.4945C45.7855 56.7456 41.6576 59.2935 41.5897 59.1865C41.5219 59.0805 45.4356 56.4281 50.3708 53.2313L50.5635 53.1066C54.8569 50.3276 58.4978 48.0626 59.507 47.5305C59.7495 46.8893 59.9714 46.3271 60.1688 45.8529L60.7509 44.4588C60.8886 44.1423 60.9677 43.9779 60.9821 43.983ZM43.9368 35.9624C43.9415 35.9779 43.7606 36.0534 43.4091 36.1786C43.0135 36.3161 42.5038 36.4914 41.8754 36.7097C41.5353 36.8234 41.1643 36.9475 40.7635 37.083C40.3591 37.2294 39.9301 37.4104 39.4636 37.5929C38.5372 37.9694 37.4597 38.3479 36.3262 38.8997C35.7533 39.1634 35.1532 39.4385 34.5289 39.725C33.9072 40.0146 33.2849 40.3699 32.6252 40.7076C32.3621 40.8379 32.098 40.9754 31.8334 41.1187C32.0153 42.5134 32.3205 46.0536 32.6052 50.2061C32.9751 55.5842 33.1714 59.9523 33.045 59.9601C32.9196 59.9689 32.5183 55.6162 32.1484 50.2376C31.8678 46.1606 31.6865 42.6649 31.6705 41.2076C30.6506 41.7661 29.6117 42.4063 28.5224 43.0532C25.7134 44.8425 22.7394 46.9932 19.8456 49.5297C19.3688 49.9563 18.9028 50.3861 18.4465 50.8184C18.465 51.1835 18.4501 51.9953 18.4182 53.1134L18.2327 59.1585C18.1747 61.4401 18.1248 63.5029 18.0827 65.2011C18.0406 66.7499 17.9984 67.7076 17.9347 67.7076C17.8731 67.7092 17.8006 66.752 17.7585 65.2011C17.7159 63.6518 17.7107 61.5094 17.7749 59.1451C17.8417 56.7793 17.9671 54.6404 18.095 53.0953C18.1778 52.0926 18.2595 51.3396 18.3237 50.9358C16.0829 53.0689 14.0919 55.2574 12.3563 57.3688C11.3353 58.689 10.3375 59.9234 9.52 61.165C9.10381 61.7804 8.67477 62.3559 8.31048 62.9408L7.26949 64.6297C6.57943 65.6909 6.07076 66.7174 5.58109 67.5939C5.34217 68.0376 5.1089 68.442 4.91313 68.8272L4.40343 69.8889C4.10799 70.4892 3.87009 70.9759 3.6846 71.3539C3.51504 71.6869 3.41947 71.8591 3.40457 71.8524C3.39019 71.8472 3.45698 71.6621 3.59931 71.3166C3.76579 70.9278 3.97953 70.4303 4.24261 69.8129C4.38647 69.4819 4.54576 69.1209 4.71686 68.7284C4.90132 68.3385 5.12431 67.9248 5.35347 67.4755C5.82413 66.5829 6.31636 65.5414 6.99049 64.4632C7.31727 63.9151 7.65845 63.3442 8.01298 62.7484C8.37162 62.1548 8.79706 61.572 9.20914 60.9483C10.0179 59.6896 11.0095 58.4372 12.0284 57.1009C14.1448 54.493 16.6528 51.7683 19.5435 49.1843C22.4584 46.6297 25.4611 44.4722 28.3015 42.6923C29.4683 42.0086 30.5802 41.3359 31.6721 40.7619C31.6731 40.72 31.6747 40.6827 31.6767 40.6502C31.6125 40.6951 30.9985 40.7189 29.997 40.721H29.7237C29.5351 40.721 29.3353 40.7205 29.1246 40.7189C27.616 40.7091 25.5587 40.6662 23.2774 40.5922L22.9506 40.5814C20.5408 40.5007 18.3602 40.4025 16.7843 40.3083C15.2069 40.2132 14.2322 40.1242 14.2358 40.0612C14.2389 39.9975 15.2177 39.9722 16.7977 39.9836C18.3782 39.9939 20.5588 40.0405 22.966 40.1206C25.3743 40.2013 27.5544 40.2985 29.1318 40.3937C30.6445 40.4836 31.6032 40.5695 31.6782 40.6336C31.6839 40.5354 31.6937 40.4836 31.7075 40.4831C31.7245 40.4816 31.7466 40.5602 31.7728 40.7096C31.9999 40.5907 32.226 40.4769 32.4515 40.3688C33.1185 40.0358 33.7469 39.6868 34.3783 39.4039C35.0103 39.1257 35.6166 38.8573 36.1967 38.6023C37.3441 38.0645 38.4349 37.7067 39.3747 37.3509C39.8469 37.1803 40.2821 37.0096 40.6911 36.8762C41.0985 36.7541 41.4752 36.6424 41.8199 36.5401C42.4622 36.3549 42.9806 36.2055 43.384 36.0902C43.7426 35.9919 43.9327 35.9479 43.9368 35.9629V35.9624ZM18.2636 49.9543C18.2764 49.9998 17.7965 50.1864 16.9621 50.4698L16.7463 50.5427C15.2953 51.0294 12.9389 51.7611 10.2686 52.5471C5.81745 53.856 2.1817 54.8199 2.14624 54.6968C2.11182 54.5748 5.68899 53.4143 10.1412 52.1039C12.8788 51.2983 15.3091 50.625 16.7823 50.2532L16.996 50.1999C17.7873 50.0044 18.2507 49.9113 18.2636 49.9543ZM36.0344 4.0026C37.9149 4.31288 40.073 4.87654 42.3461 5.78513C42.4026 5.78513 42.4314 5.78927 42.4334 5.79909C42.4334 5.80323 42.4298 5.80892 42.4206 5.81461C42.8049 5.96974 43.1939 6.13471 43.5849 6.31001C46.3065 7.52629 49.1228 9.28865 51.6888 11.6028C54.2337 13.9417 56.2566 16.5879 57.7307 19.1931C59.2115 21.7999 60.1816 24.3385 60.7643 26.5249C61.3541 28.7118 61.6172 30.5321 61.7133 31.7918C61.7811 32.4201 61.7708 32.9135 61.7878 33.2444C61.7939 33.5774 61.7909 33.7517 61.7754 33.7517C61.7343 33.7538 61.6866 33.0577 61.5355 31.811C61.3875 30.5631 61.0767 28.7677 60.4534 26.6139C59.2459 22.331 56.4405 16.5568 51.381 11.9446C48.3325 9.17178 44.9491 7.25842 41.7881 6.00439C41.2948 6.1285 40.5364 6.3007 39.5802 6.51583C37.8106 6.91246 35.3669 7.46216 32.6781 8.11426C31.8941 8.30456 31.1326 8.49279 30.4035 8.67585L29.7869 8.83099C28.266 9.21521 26.908 9.56944 25.811 9.8549C25.2787 9.99349 24.808 10.115 24.4093 10.2158L24.1791 10.2732C23.4043 10.4667 22.9588 10.5639 22.946 10.5251C22.9295 10.4656 23.9859 10.0788 25.7221 9.541C27.4588 9.00216 29.8768 8.32111 32.5707 7.66591C35.2667 7.0133 37.7284 6.51272 39.517 6.19573C40.3144 6.05507 40.9783 5.94854 41.4695 5.87976C39.4975 5.12114 37.621 4.6185 35.9768 4.32322C33.7859 3.91314 31.9783 3.78076 30.7297 3.75749C29.4822 3.72956 28.7891 3.75232 28.787 3.71095C28.786 3.69491 28.9591 3.67371 29.287 3.64786C29.6168 3.63234 30.1044 3.57184 30.7323 3.57856C31.9876 3.54753 33.8137 3.63027 36.0344 4.0026ZM56.3177 17.9831C56.3398 18.0425 55.6045 18.3859 54.3868 18.8673C53.1706 19.3503 51.4683 19.9678 49.5657 20.5769C47.662 21.1851 45.9186 21.6681 44.648 21.9815C43.3763 22.2943 42.5783 22.4417 42.5639 22.3817C42.5475 22.3176 43.3141 22.0595 44.5611 21.667C45.969 21.2244 47.6132 20.7078 49.4269 20.1364L54.2794 18.5612C55.5213 18.1578 56.2956 17.9241 56.3177 17.9831ZM50.3009 1.71743C50.4243 1.70554 50.6956 3.62407 50.7546 6.00749C50.8153 8.39144 50.6411 10.3198 50.5178 10.3151C50.4885 10.3141 50.4643 10.2138 50.4433 10.0318L50.4315 9.91282C50.3713 9.24934 50.342 7.83294 50.3009 6.17918L50.2968 6.01887C50.2388 3.65044 50.1725 1.72777 50.3009 1.71743Z" fill="white"/>
<mask id="mask0" style="mask-type:alpha" maskUnits="userSpaceOnUse" x="59" y="34" width="66" height="26">
<path d="M59.2756 34.0699H124.025V59.7234H59.2756V34.0699Z" fill="white"/>
</mask>
<g mask="url(#mask0)">
<path fill-rule="evenodd" clip-rule="evenodd" d="M71.112 59.721C71.0231 59.8125 68.303 57.2817 65.0351 54.0704C61.7668 50.8575 59.1895 48.1788 59.2784 48.0877C59.3657 47.9972 62.0864 50.5275 65.3547 53.7409C68.6226 56.9518 71.1999 59.6294 71.112 59.721Z" fill="white"/>
</g>
<path fill-rule="evenodd" clip-rule="evenodd" d="M123.903 46.8936C123.895 46.9086 123.695 46.8134 123.319 46.6195C122.905 46.4007 122.362 46.1158 121.683 45.758C120.266 45.0066 118.225 43.8999 115.647 42.6552C113.065 41.4234 109.938 40.0334 106.3 39.0307C102.678 38.0171 98.4961 37.4866 94.1858 38.0425C89.8934 38.6113 85.9411 40.293 83.1439 42.814C80.3282 45.3287 78.6084 48.3637 77.3943 50.9432C76.1817 53.5448 75.4346 55.7586 74.891 57.2728C74.6382 57.9978 74.4337 58.5806 74.277 59.0222C74.1347 59.4224 74.0514 59.6293 74.037 59.6257C74.0216 59.6205 74.0745 59.4033 74.1891 58.9943C74.3248 58.5444 74.5026 57.9533 74.7225 57.2154C75.2147 55.6816 75.9166 53.4466 77.0999 50.8066C78.2868 48.19 79.9978 45.0893 82.8639 42.4965C85.7145 39.8938 89.7593 38.1629 94.1267 37.5853C98.5105 37.0196 102.759 37.5739 106.412 38.6206C110.084 39.658 113.215 41.0878 115.788 42.3625C118.358 43.6481 120.378 44.8018 121.77 45.6013C122.431 45.9891 122.961 46.3015 123.363 46.5383C123.725 46.7586 123.91 46.8796 123.903 46.8936Z" fill="white"/>
<path fill-rule="evenodd" clip-rule="evenodd" d="M115.62 51.3722C115.55 51.4761 111.039 48.5404 105.547 44.813C100.053 41.0856 95.658 37.9771 95.7279 37.8722C95.7988 37.7672 100.308 40.7029 105.802 44.4319C111.295 48.1593 115.691 51.2662 115.62 51.3722ZM111.288 37.4373C111.311 37.5583 109.747 37.9673 107.768 38.1483C105.787 38.335 104.175 38.2186 104.177 38.0966C104.177 37.9652 105.77 37.8722 107.725 37.6891C109.68 37.5112 111.264 37.309 111.288 37.4373ZM91.0629 33.7905C91.1724 33.8551 90.5101 35.1888 89.5837 36.7691C88.6573 38.3484 87.8187 39.5771 87.7098 39.5125C87.6009 39.4489 88.2626 38.1147 89.1896 36.5338C90.1144 34.954 90.9545 33.7259 91.0634 33.7905H91.0629ZM95.1056 54.0457C95.0738 54.098 94.2373 53.6579 92.9342 52.8615C91.6322 52.0651 89.8704 50.8995 87.9883 49.5245C86.1077 48.149 84.4481 46.8489 83.256 45.8964C82.064 44.9438 81.3457 44.3321 81.3832 44.2809C81.4202 44.2307 82.2099 44.7504 83.4508 45.6368C84.8036 46.6265 86.4443 47.8247 88.2575 49.1511C90.1329 50.5215 91.8568 51.7244 93.1105 52.589C94.3647 53.451 95.1401 53.9899 95.1056 54.0457ZM107.59 115.422C107.582 115.435 107.421 115.36 107.122 115.202C106.824 115.039 106.397 114.777 105.891 114.371C104.859 113.583 103.675 112.061 102.643 109.999C102.119 108.974 101.533 107.862 100.96 106.629C100.404 105.393 99.8127 104.075 99.1894 102.692C98.5626 101.313 97.873 99.88 97.0144 98.4827C96.162 97.0839 95.1483 95.7161 94.0215 94.3861C91.7699 91.7239 89.354 89.4211 87.2587 87.2197C85.1536 85.0282 83.3819 82.9173 82.101 80.9936C80.8087 79.0771 80.0257 77.3597 79.5828 76.1502C79.369 75.5384 79.218 75.0611 79.1414 74.7291C79.0592 74.3992 79.0237 74.2249 79.0392 74.2203C79.0818 74.2079 79.2683 74.8977 79.7482 76.084C80.2405 77.2646 81.0569 78.9359 82.3687 80.809C83.6697 82.6882 85.448 84.7577 87.5608 86.9255C89.6648 89.1026 92.0967 91.3986 94.3704 94.0887C95.5079 95.4327 96.5356 96.8212 97.3978 98.2479C98.264 99.6731 98.9541 101.127 99.5738 102.516C100.183 103.906 100.76 105.228 101.304 106.469C101.857 107.696 102.426 108.82 102.931 109.85C103.922 111.918 105.027 113.415 106.006 114.233C106.967 115.067 107.618 115.378 107.59 115.422Z" fill="white"/>
<path fill-rule="evenodd" clip-rule="evenodd" d="M90.5791 110.02C90.5205 110.008 90.6228 109.154 90.8812 107.791C91.1381 106.428 91.561 104.556 92.1313 102.517C92.7017 100.477 93.3131 98.6588 93.8007 97.3603C94.2873 96.0612 94.6418 95.2794 94.6984 95.3011C94.7605 95.3233 94.5129 96.145 94.1064 97.4652C93.6985 98.787 93.1405 100.611 92.5712 102.642C92.0044 104.671 91.5348 106.52 91.1967 107.862C90.8591 109.202 90.6438 110.032 90.5791 110.02ZM106.967 94.061C106.947 94.1246 106.067 93.8986 104.648 93.5253C103.232 93.1529 101.275 92.6431 99.0961 92.1482C96.9175 91.6559 94.9327 91.2716 93.4929 90.9965C92.0532 90.7225 91.1623 90.5466 91.171 90.481C91.1792 90.4205 92.0877 90.482 93.5443 90.6754C95.0015 90.8678 97.0069 91.2029 99.1973 91.6988C101.387 92.1963 103.342 92.7589 104.739 93.214C106.138 93.6675 106.985 94.0041 106.967 94.061ZM78.3719 98.6986C78.3118 98.6862 78.4397 97.699 78.7275 96.1192C79.0162 94.5383 79.4776 92.3659 80.0927 89.9923C80.7092 87.6176 81.3623 85.4948 81.8777 83.974C82.393 82.4536 82.7614 81.529 82.82 81.5492C82.8816 81.5694 82.6222 82.5286 82.1865 84.0712C81.7523 85.6143 81.1491 87.7428 80.5345 90.1076C79.9236 92.4724 79.4149 94.6267 79.044 96.1864C78.675 97.746 78.4361 98.711 78.3719 98.6986ZM99.4198 80.155C99.4075 80.2812 95.299 79.9471 90.2482 79.4083C85.1959 78.8679 81.1116 78.3291 81.1244 78.2034C81.1378 78.0757 85.2436 78.4103 90.296 78.9496C95.3483 79.4885 99.4326 80.0288 99.4198 80.155ZM96.4104 130.277C96.4104 130.404 81.9742 130.507 64.1716 130.507C46.3623 130.507 31.9287 130.404 31.9287 130.277C31.9287 130.151 46.3623 130.047 64.1716 130.047C81.9742 130.047 96.4104 130.151 96.4104 130.277ZM86.3669 148.975C86.3669 149.102 76.6403 149.205 64.6459 149.205C52.6462 149.205 42.9218 149.102 42.9218 148.975C42.9218 148.846 52.6462 148.743 64.6459 148.743C76.6398 148.743 86.3669 148.847 86.3669 148.975ZM86.7471 146.771C86.7471 146.898 76.6856 147.002 64.2795 147.002C51.8668 147.002 41.8078 146.898 41.8078 146.771C41.8078 146.644 51.8668 146.541 64.2795 146.541C76.6856 146.541 86.7466 146.644 86.7466 146.771" fill="white"/>
</svg>
