<svg width="92" height="248" viewBox="0 0 92 248" fill="none" xmlns="http://www.w3.org/2000/svg">
<path fill-rule="evenodd" clip-rule="evenodd" d="M17.3318 191.022C17.3318 191.022 17.3519 190.832 17.4272 190.466L17.7717 188.846L19.1536 182.632C20.3888 177.21 22.1634 169.411 24.3567 159.775L41.7979 84.2218L42.1052 82.8877L42.4085 84.2228C42.529 84.752 42.6596 85.3262 42.7921 85.9014L60.1721 162.662L65.3682 185.94L66.751 192.276L67.0945 193.926C67.1688 194.299 67.1909 194.494 67.1909 194.494C67.1909 194.494 67.1266 194.309 67.0312 193.939L66.6275 192.303L65.1312 185.994L59.7392 162.759C55.2401 143.104 49.0337 115.993 42.1795 86.0392L41.7979 84.3606L42.4085 84.3616L24.7855 159.873C22.5119 169.491 20.669 177.275 19.3896 182.686L17.8932 188.875L17.4885 190.48C17.3951 190.841 17.3308 191.022 17.3308 191.022" fill="white"/>
<path opacity="0.8" fill-rule="evenodd" clip-rule="evenodd" d="M17.3179 213.461V194.493H68.2124V213.46C68.2124 225.656 58.2701 235.542 46.0049 235.542H39.5263C27.2612 235.542 17.3179 225.656 17.3179 213.46" fill="white"/>
<path fill-rule="evenodd" clip-rule="evenodd" d="M17.3179 194.493C17.336 194.483 17.5348 194.757 17.8954 195.291C18.282 195.875 18.7992 196.657 19.447 197.639C20.8067 199.746 22.7149 202.707 25.0558 206.341C29.7719 213.765 36.2273 223.936 43.3617 235.171L43.4912 235.376L42.957 235.381C49.8814 224.075 56.1431 213.853 60.7105 206.393L66.1476 197.653L67.652 195.294C68.0015 194.758 68.1943 194.483 68.2124 194.494C68.2305 194.506 68.0738 194.803 67.7605 195.358L66.3555 197.779L61.0891 206.621L43.4943 235.705L43.2301 236.14L42.959 235.709L42.8304 235.504L24.6802 206.575L19.2401 197.768L17.7879 195.357C17.4625 194.802 17.2988 194.506 17.3179 194.494V194.493ZM47.8187 84.0541C47.8187 87.1057 45.3301 89.5802 42.26 89.5802C39.191 89.5802 36.7034 87.1057 36.7034 84.0541C36.7034 81.0015 39.191 78.5291 42.26 78.5291C45.3301 78.5291 47.8187 81.0015 47.8187 84.0541Z" fill="white"/>
<path fill-rule="evenodd" clip-rule="evenodd" d="M42.4327 0C42.6064 0 42.5753 11.2885 42.5753 37.5418C42.5753 63.8061 42.4347 85.0906 42.26 85.0906C42.0882 85.0906 41.9466 63.8061 41.9466 37.5428C41.9466 11.2885 42.26 0 42.4327 0ZM45.1442 237.604C45.1442 238.91 44.0797 239.969 42.7651 239.969C41.4505 239.969 40.386 238.911 40.386 237.604C40.386 236.298 41.4505 235.237 42.7661 235.237C44.0797 235.237 45.1442 236.298 45.1442 237.604Z" fill="white"/>
<path fill-rule="evenodd" clip-rule="evenodd" d="M41.7116 238.489C41.8401 238.425 41.9677 238.363 42.0932 238.299C40.7053 239.076 39.9069 240.642 39.691 242.213C39.4751 243.782 39.7643 245.375 40.0987 246.924C40.2042 247.417 40.4643 248.03 40.9704 247.999C41.4274 247.972 41.6423 247.434 41.7196 246.984C41.8803 246.049 41.9064 245.09 41.7929 244.146C41.7327 245.346 42.1324 246.563 42.8966 247.495C43.0453 247.676 43.2582 247.864 43.4861 247.804C43.7031 247.746 43.7975 247.501 43.8557 247.285C44.0646 246.492 44.1851 245.674 44.2122 244.854C44.3367 245.559 44.4834 246.306 44.9704 246.832C45.4595 247.356 46.4176 247.511 46.8665 246.951C47.1668 246.577 47.1367 246.045 47.0704 245.571C46.6727 242.749 45.5117 240.039 43.7412 237.8" fill="white"/>
<path opacity="0.6" fill-rule="evenodd" clip-rule="evenodd" d="M20.5215 194.493C20.5215 194.493 -2.34372 168.285 0.197087 167.339C2.7379 166.391 23.0614 180.917 23.0614 180.917C23.0614 180.917 5.59605 142.077 9.08791 139.235C12.5818 136.392 31.0011 173.653 31.0011 173.653C31.0011 173.653 28.142 119.343 31.0011 118.711C33.8593 118.078 44.3389 173.022 44.3389 173.022C44.3389 173.022 59.9001 122.815 64.346 122.815C68.7909 122.815 59.5817 171.127 59.5817 171.127C59.5817 171.127 78.0021 140.183 80.8592 144.287C83.7184 148.392 67.8388 181.863 67.8388 181.863C67.8388 181.863 91.0215 162.601 91.9745 165.127C92.9266 167.653 66.8858 194.494 66.8858 194.494H20.5215" fill="white"/>
<path fill-rule="evenodd" clip-rule="evenodd" d="M17.3321 155.022C17.4888 154.952 21.544 163.598 26.3886 174.332C31.2352 185.068 35.0334 193.826 34.8747 193.896C34.7181 193.966 30.6628 185.323 25.8162 174.586C20.9716 163.854 17.1724 155.093 17.3311 155.022H17.3321ZM35.8027 159.853C35.9754 159.841 36.6493 167.461 37.3071 176.872C37.9669 186.284 38.3616 193.921 38.1868 193.933C38.0141 193.945 37.3402 186.327 36.6804 176.915C36.0226 167.504 35.6289 159.865 35.8027 159.853ZM61.2821 135.529C61.3022 135.537 61.256 135.748 61.1475 136.145C61.0119 136.608 60.8472 137.179 60.6454 137.873L58.7322 144.199C57.1214 149.541 54.9531 156.939 52.7448 165.159C50.5394 173.383 48.7126 180.871 47.4342 186.302L45.9217 192.735L45.4919 194.481C45.3864 194.878 45.3212 195.086 45.3001 195.08C45.28 195.077 45.3031 194.861 45.3674 194.455L45.6827 192.685C45.9679 191.149 46.4158 188.936 47.0003 186.205C48.1703 180.745 49.9308 173.233 52.1392 164.998C54.3486 156.768 56.5871 149.381 58.3094 144.068C59.1701 141.411 59.8891 139.27 60.4124 137.797L61.027 136.106C61.1736 135.721 61.261 135.522 61.2821 135.529ZM72.2999 163.525C72.4415 163.625 67.9776 170.241 62.3315 178.302C56.6835 186.368 51.9905 192.823 51.8469 192.725C51.7053 192.626 56.1673 186.011 61.8163 177.946C67.4634 169.884 72.1573 163.427 72.2999 163.525ZM28.2385 193.937C28.1843 194.001 27.41 193.472 26.237 192.517C25.065 191.564 23.5024 190.171 21.8865 188.523C20.2716 186.874 18.9098 185.288 17.9799 184.098C17.0489 182.907 16.5367 182.123 16.602 182.073C16.7476 181.96 19.1247 184.823 22.3364 188.088C25.537 191.361 28.356 193.796 28.2375 193.937H28.2385ZM42.1256 183.525C42.2983 183.51 42.6609 185.931 42.935 188.931C43.2112 191.934 43.2946 194.379 43.1218 194.394C42.9501 194.41 42.5855 191.99 42.3114 188.989C42.0362 185.988 41.9518 183.541 42.1256 183.526" fill="white"/>
<path fill-rule="evenodd" clip-rule="evenodd" d="M68.2123 206.314C68.2184 206.356 67.5194 206.497 66.246 206.718C64.9736 206.941 63.1257 207.227 60.837 207.543C56.2625 208.172 49.9095 208.891 42.8535 209.133C35.7934 209.369 29.3932 208.983 24.8057 208.384C22.5119 208.089 20.6631 207.79 19.3987 207.519C18.1333 207.262 17.4373 207.1 17.4454 207.058C17.4524 207.016 18.1634 207.096 19.4399 207.28C20.7143 207.476 22.5662 207.708 24.8559 207.945C29.4364 208.431 35.8025 208.744 42.8324 208.51C49.8583 208.268 56.1992 207.621 60.7817 207.106L66.2108 206.477C67.4933 206.332 68.2063 206.27 68.2123 206.314ZM68.2123 211.96C68.2184 212.003 67.5194 212.144 66.246 212.365C64.9736 212.588 63.1257 212.874 60.837 213.189C56.2625 213.818 49.9095 214.537 42.8535 214.781C35.7934 215.015 29.3932 214.631 24.8057 214.031C22.5119 213.735 20.6631 213.434 19.3987 213.166C18.1333 212.908 17.4373 212.746 17.4454 212.704C17.4524 212.661 18.1634 212.743 19.4399 212.926C20.7143 213.122 22.5662 213.355 24.8559 213.591C29.4364 214.077 35.8025 214.39 42.8324 214.156C49.8583 213.914 56.1992 213.268 60.7817 212.751C62.9931 212.497 64.8229 212.284 66.2108 212.125C67.4933 211.978 68.2063 211.916 68.2123 211.96Z" fill="#FFFFFE"/>
</svg>
