<svg width="139" height="39" viewBox="0 0 139 39" fill="none" xmlns="http://www.w3.org/2000/svg">
<path d="M134.992 28.6554C134.527 26.5059 132.895 25.1889 130.647 25.1889C128.32 25.1889 126.577 26.5355 126.102 28.6554H134.992ZM130.647 38.7276C125.787 38.7276 122.259 35.1333 122.259 30.1812C122.259 27.706 123.105 25.5776 124.706 24.026C126.231 22.5492 128.341 21.7356 130.647 21.7356C135.448 21.7356 138.8 25.2086 138.8 30.1812C138.8 30.5557 138.8 31.0684 138.765 31.4203L138.732 31.7409H126.102C126.583 33.9018 128.366 35.2746 130.748 35.2746C132.553 35.2746 134.159 34.4217 134.939 33.0484L135.095 32.7737L135.388 32.895C135.83 33.0782 136.335 33.2659 136.824 33.4475C137.219 33.5942 137.627 33.7459 138.004 33.8961L138.362 34.0382L138.193 34.3825C136.859 37.1033 134.038 38.7276 130.647 38.7276Z" fill="#D76C0B"/>
<path d="M116.882 38.41V13.5957H117.24C119.123 13.5957 120.655 15.1201 120.655 16.9935V38.41H116.882Z" fill="#D76C0B"/>
<path d="M86.5332 25.4222C83.7811 25.4222 81.7836 27.4235 81.7836 30.1808C81.7836 32.9511 83.8255 35.0402 86.5332 35.0402C88.8692 35.0402 91.3835 33.5194 91.3835 30.1808C91.3835 27.09 88.8844 25.4222 86.5332 25.4222ZM106.988 25.4222C104.637 25.4222 102.138 27.09 102.138 30.1808C102.138 33.5194 104.652 35.0402 106.988 35.0402C109.677 35.0402 111.704 32.9511 111.704 30.1808C111.704 27.3792 109.765 25.4222 106.988 25.4222ZM107.223 38.7273C105.302 38.7273 102.809 38.0066 101.297 36.0255C100.329 37.5822 98.6018 38.56 96.7467 38.56C94.8933 38.56 93.1679 37.584 92.1995 36.0298C90.7091 38.0074 88.2062 38.7273 86.2642 38.7273C84.0284 38.7273 81.9527 37.9014 80.4189 36.402C78.8225 34.8413 77.9431 32.6438 77.9431 30.2145C77.9431 27.7742 78.8229 25.5779 80.4201 24.0299C81.9473 22.5503 84.0226 21.7353 86.2642 21.7353C88.4189 21.7353 90.4029 22.5549 91.568 23.8771C91.9379 22.8257 92.9451 22.0696 94.1267 22.0696H95.1567V30.1878L95.1683 30.5439V33.2361C95.1683 33.6547 95.3327 34.0489 95.6313 34.346C95.9297 34.6428 96.3259 34.8065 96.7467 34.8065C96.7732 34.8065 96.7999 34.8059 96.8269 34.8044C97.6669 34.7632 98.3251 34.0498 98.3251 33.1803V30.1878H98.3309V13.5786H102.104V23.6994C103.278 22.4539 105.126 21.7353 107.257 21.7353C112.059 21.7353 115.544 25.3013 115.544 30.2145C115.544 32.6438 114.665 34.8411 113.069 36.4022C111.535 37.9014 109.459 38.7273 107.223 38.7273Z" fill="#D76C0B"/>
<path d="M72.8575 38.3933V28.859C72.8575 26.8797 71.3338 25.387 69.3127 25.387C67.2919 25.387 65.768 26.8797 65.768 28.859V38.3933H62.009V28.859C62.009 26.8797 60.485 25.387 58.4644 25.387C56.4436 25.387 54.9195 26.8797 54.9195 28.859V38.3933H51.1665V29.1933C51.1665 25.0115 54.3721 21.7356 58.4642 21.7356C60.6805 21.7356 62.6912 22.6157 64.0502 24.1651C65.4373 22.6157 67.3326 21.7356 69.3127 21.7356C71.2695 21.7356 73.0874 22.424 74.4316 23.6739C75.8366 24.9807 76.6104 26.8221 76.6104 28.859V38.3933H72.8575Z" fill="#D76C0B"/>
<path d="M30.9576 9.78553C30.3661 10.3588 29.5862 10.6749 28.7619 10.6747C28.5009 10.6747 28.2351 10.6435 27.9719 10.582C26.8384 10.3164 25.9173 9.37561 25.6803 8.24118C25.4488 7.13295 25.769 6.05817 26.5593 5.29255C27.1514 4.71899 27.9308 4.40298 28.7541 4.40298L28.7972 4.40339C29.0445 4.40662 29.2959 4.43785 29.5449 4.4961C30.6789 4.76212 31.5997 5.70268 31.8365 6.8371C32.0681 7.94534 31.7476 9.01991 30.9576 9.78553ZM21.3625 31.6248C21.3421 32.3014 21.321 33.0011 21.321 33.6912V33.9796C21.321 34.2635 21.2095 34.5307 21.0071 34.7323C20.8045 34.9336 20.5357 35.0444 20.2502 35.0444C20.2037 35.0444 20.1564 35.0416 20.1089 35.0356C19.5792 34.9681 19.1797 34.4959 19.1797 33.9372V33.6912C19.1797 33.0005 19.1582 32.2975 19.1372 31.6176L19.1366 31.5952C19.0716 29.4819 19.0393 25.0734 19.3818 23.5127C19.5593 22.7056 19.8514 21.9305 20.2515 21.2048C20.4674 21.5994 20.6531 22.0109 20.8047 22.4318C21.476 24.2967 21.4426 28.9817 21.3625 31.6248ZM14.1925 9.75651C13.5974 10.3486 12.8063 10.6747 11.9653 10.6747C11.7181 10.6747 11.4667 10.6468 11.2176 10.5919C10.0806 10.3412 9.14734 9.41269 8.89514 8.28149C8.64902 7.17649 8.9551 6.09768 9.73499 5.32178C10.3306 4.72947 11.121 4.40319 11.9612 4.40319C12.2081 4.40319 12.4602 4.43101 12.7097 4.48622C13.8473 4.73713 14.7805 5.66559 15.0321 6.7968C15.2785 7.9018 14.9724 8.9806 14.1925 9.75651ZM40.4975 25.3805H40.4989L40.4971 25.2278C40.429 19.9603 37.0196 15.4607 32.3056 13.7177C32.8251 13.4222 33.3102 13.061 33.7485 12.6364C35.5113 10.9282 36.2608 8.45763 35.7532 6.02734C35.1973 3.3671 33.1204 1.24557 30.4621 0.622636C29.9045 0.491841 29.3342 0.425537 28.7672 0.425537C26.8851 0.425537 25.1098 1.14158 23.7686 2.44167C22.0055 4.14986 21.2562 6.62065 21.764 9.05134C22.1388 10.8445 23.2065 12.3908 24.6758 13.4003C23.087 13.8412 21.5814 14.5911 20.2646 15.6213C19.8767 15.3156 19.4682 15.0315 19.0486 14.7748C18.0862 14.1872 17.0515 13.7384 15.9751 13.4305C16.3464 13.1796 16.697 12.8929 17.021 12.5705C18.761 10.8395 19.4775 8.35907 18.9378 5.93565C18.3468 3.28307 16.2421 1.18894 13.5754 0.600871C13.048 0.484586 12.5094 0.425537 11.9742 0.425537C10.0556 0.425537 8.25604 1.16496 6.90694 2.50757C5.16648 4.23874 4.45 6.7192 4.98984 9.14284C5.4199 11.0721 6.65252 12.7023 8.31722 13.6761C3.54128 15.3894 0.0717089 19.928 0 25.2514V35.4727C0 37.3536 1.73945 38.8377 3.70192 38.4167L3.70151 25.276C3.76593 20.5056 7.71802 16.625 12.5116 16.625C14.1408 16.625 15.7314 17.0703 17.1115 17.9134C17.3139 18.0371 17.5142 18.1711 17.7084 18.3128C16.7682 19.6528 16.1147 21.1368 15.7657 22.7264C15.2596 25.0297 15.4029 30.6124 15.4364 31.708L15.4373 31.7337C15.4582 32.4142 15.478 33.0573 15.478 33.6912V33.9796C15.478 35.2458 15.9749 36.4376 16.8772 37.3353C17.7795 38.2331 18.9774 38.7274 20.2502 38.7274C20.2958 38.7274 20.3421 38.7268 20.388 38.7254C22.9436 38.6535 25.0228 36.4774 25.0228 33.8746V33.6912C25.0228 33.0504 25.0424 32.4041 25.0631 31.7198C25.2193 26.5911 24.9589 23.0484 24.2898 21.1898C23.9247 20.176 23.4257 19.2108 22.8054 18.3187C24.3118 17.2256 26.1466 16.625 27.9892 16.625C32.7838 16.625 36.734 20.5052 36.7954 25.2874C36.7979 25.6893 36.7985 34.4703 36.7985 38.4181C37.8971 38.6506 38.9775 38.3002 39.7093 37.5032C40.236 36.9294 40.4997 36.1635 40.4997 35.3866L40.4975 25.3805Z" fill="#D76C0B"/>
</svg>
